<?xml version="1.0" encoding="utf-8"?>
<!-- Generator: Adobe Illustrator 15.0.2, SVG Export Plug-In . SVG Version: 6.00 Build 0)  -->
<!DOCTYPE svg PUBLIC "-//W3C//DTD SVG 1.1//EN" "http://www.w3.org/Graphics/SVG/1.1/DTD/svg11.dtd">
<svg version="1.1" xmlns="http://www.w3.org/2000/svg" xmlns:xlink="http://www.w3.org/1999/xlink" x="0px" y="0px"
	 width="1190.55px" height="841.89px" viewBox="0 0 1190.55 841.89" enable-background="new 0 0 1190.55 841.89"
	 xml:space="preserve">
<g id="Just_x5F_RGB">
	<g>
		<polygon fill="#E20015" points="1017.643,259.365 913.812,259.365 934,155.542 1037.83,155.542 		"/>
	</g>
	<polygon fill="#FFFFFF" points="1014.422,195.797 991.83,195.797 996.776,170.344 972.801,170.344 967.854,195.797 
		943.782,195.797 939.103,219.85 963.176,219.85 957.957,246.686 981.941,246.686 987.156,219.85 1009.748,219.85 	"/>
	<path fill="#00509E" d="M158.962,358.944c-1.494-120.11,200.903-220.016,452.059-223.134
		c112.653-1.399,215.978,16.923,295.825,48.381c-79.159-51.911-196.607-84.803-327.713-84.803
		c-238.356,0-431.578,108.667-431.578,242.735c0,58.303,36.561,111.795,97.483,153.666l2.147-10.223
		C192.259,450.371,159.555,406.654,158.962,358.944z M319.155,521.834c-1.178,4.243-2.423,8.385-3.753,12.422
		c72.939,31.715,164.41,50.597,263.731,50.597c83.291,0,161.068-13.281,227.025-36.268
		c-57.659,13.442-121.912,21.354-189.735,22.197C503.09,572.19,399.199,553.635,319.155,521.834z"/>
	<path fill="#00509E" d="M376.831,214.301h-60.098h-2.558l-61.542,305.986c-6.563,31.545-29.08,74.548-65.536,76.592l6.554,18.022
		c42.124-0.245,69.773-14.679,88.11-40.024c13.181-17.883,22.153-41.339,28.787-69.553L376.831,214.301z"/>
	<path fill="#00509E" d="M537.89,481.357h-53.654l4.912-21.313c-20.882,13.925-45.458,25.401-70.854,25.401
		c-44.229,0-43.825-45.477-37.273-77.004l24.174-116.312l55.701-9.021l-24.99,119.182c-3.686,17.199-7.784,50.384,18.426,50.384
		c13.933,0,28.263-6.967,38.916-15.558l30.305-144.987l55.7-9.021L537.89,481.357z"/>
	<path fill="#00509E" d="M697.594,305.229c-16.786-0.413-38.091,10.231-38.091,29.491c0,24.567,75.769,29.894,75.769,77.398
		c-0.404,50.382-52.822,73.74-96.248,73.74c-18.827,0-35.615-4.501-53.232-10.653l-1.633-22.531
		c15.969,8.186,34.396,12.283,52.006,12.283c19.663,0,46.285-11.056,46.285-33.99c0.402-33.176-75.775-34.406-75.775-78.636
		c0-45.048,50.373-67.581,89.689-67.581c13.109,0,31.537,4.089,43.005,10.652l1.228,22.524
		C727.487,310.959,712.748,305.229,697.594,305.229z"/>
	<path fill="#00509E" d="M902.371,306.054H855.26l-23.743,112.628c-4.915,22.516-6.976,38.09,23.341,38.09
		c7.781,0,15.564-0.816,23.34-2.062l-10.23,22.543c-19.656,4.105-39.318,8.193-59.798,8.193c-35.634,0-39.732-21.305-33.59-49.979
		l27.033-129.413h-24.567l3.679-17.619h24.172l9.826-45.459l55.296-9.021l-11.064,54.48h46.689L902.371,306.054z"/>
	<g>
		<path fill="#00509E" d="M212.988,697.449c17.57,0,24.304,11.754,24.304,22.957c0,11.202-6.734,22.956-24.304,22.956
			c-17.569,0-24.304-11.754-24.304-22.956C188.685,709.203,195.419,697.449,212.988,697.449z M212.988,703.081
			c-9.979,0-17.814,5.755-17.814,17.325s7.836,17.324,17.814,17.324s17.814-5.754,17.814-17.324S222.967,703.081,212.988,703.081z"
			/>
		<path fill="#00509E" d="M247.643,698.551h27.059c8.754,0,11.938,6.061,11.938,11.632c0,5.326-2.571,9.244-7.346,10.774v0.122
			c3.857,0.551,6.122,4.163,6.367,9.306c0.367,8.142,0.612,10.162,2.082,11.876h-6.856c-1.041-1.225-1.041-3.061-1.347-8.325
			c-0.429-7.836-3.061-10.224-8.448-10.224h-16.958v18.549h-6.489V698.551z M272.252,718.079c6.367,0,7.897-3.856,7.897-6.917
			c0-4.163-2.51-6.979-7.713-6.979h-18.304v13.896H272.252z"/>
		<path fill="#00509E" d="M297.478,698.551h6.489v43.71h-6.489V698.551z"/>
		<path fill="#00509E" d="M340.944,718.691h20.08v23.569h-4.653l-1.102-6.244c-2.877,3.367-7.53,7.346-16.773,7.346
			c-17.509,0-23.08-12.61-23.08-22.222c0-16.896,11.57-23.691,22.896-23.691c9,0,19.223,2.815,21.978,14.876h-6.856
			c-2.02-6.061-6.55-9.244-14.815-9.244c-11.57,0-16.712,8.203-16.712,17.509c0,12.365,7.897,17.141,17.019,17.141
			c9.489,0,15.672-5.632,16.345-13.406h-14.325V718.691z"/>
		<path fill="#00509E" d="M373.885,698.551h6.489v43.71h-6.489V698.551z"/>
		<path fill="#00509E" d="M400.272,707.488h-0.123v34.772h-6.489v-43.71h7.53l28.099,34.772h0.122v-34.772h6.489v43.71h-7.53
			L400.272,707.488z"/>
		<path fill="#00509E" d="M477.656,729.527h-21.427l-5.571,12.733h-6.979l19.774-43.71h7.407l19.773,43.71h-7.407L477.656,729.527z
			 M466.882,704.551l-8.204,19.345h16.59L466.882,704.551z"/>
		<path fill="#00509E" d="M498.413,698.551h6.489v38.078h26.569v5.632h-33.058V698.551z"/>
		<path fill="#00509E" d="M562.575,722.059h21.488v6.367h-21.488V722.059z"/>
		<path fill="#00509E" d="M622.083,727.874c0.122,7.836,7.469,9.856,14.08,9.856c6.918,0,11.815-2.632,11.815-7.407
			c0-3.979-3.122-5.632-8.143-6.489l-9.917-1.652c-5.204-0.857-12.979-2.939-12.979-11.448c0-7.958,6.306-13.284,17.509-13.284
			c8.754,0,17.998,3.184,18.61,13.713h-6.489c-0.551-3.429-2.51-8.081-12.979-8.081c-4.775,0-10.162,2.021-10.162,7.162
			c0,2.694,1.775,4.837,7.162,5.755l10.714,1.837c3.428,0.612,13.162,2.265,13.162,11.202c0,11.143-9.979,14.325-18.794,14.325
			c-9.856,0-20.08-3.428-20.08-15.488H622.083z"/>
		<path fill="#00509E" d="M663.776,698.551h6.489v43.71h-6.489V698.551z"/>
		<path fill="#00509E" d="M690.163,707.488h-0.122v34.772h-6.489v-43.71h7.529l28.1,34.772h0.122v-34.772h6.489v43.71h-7.53
			L690.163,707.488z"/>
		<path fill="#00509E" d="M774.465,714.284c-0.979-6.061-5.754-11.203-14.937-11.203c-10.346,0-16.896,5.938-16.896,17.876
			c0,8.265,4.469,16.773,16.529,16.773c7.652,0,13.468-3.673,15.304-12.183h6.489c-1.04,9.673-9.366,17.814-21.854,17.814
			c-11.02,0-22.957-6.061-22.957-23.079c0-12.733,7.959-22.834,22.896-22.834c8.755,0,20.814,3.734,21.916,16.835H774.465z"/>
		<path fill="#00509E" d="M791.487,698.551h35.14v5.632h-28.65v12.673h27.793v5.632h-27.793v14.142h29.262v5.632h-35.751V698.551z"
			/>
		<path fill="#00509E" d="M868.629,711.346h-12.795v-4.775h1.47c10.896,0,12.488-5.143,12.733-8.02h5.081v43.71h-6.489V711.346z"/>
		<path fill="#00509E" d="M896.729,732.221c0.673,3.918,4.347,5.877,8.509,5.877c7.04,0,12.183-2.877,12.917-15.549h-0.122
			c-1.653,2.815-6.306,5.632-12.488,5.632c-7.407,0-16.406-3.429-16.406-14.57c0-6.428,4.652-14.814,16.957-14.814
			c12.979,0,18.182,7.958,18.182,21.365c0,22.283-13.468,23.079-19.345,23.079c-5.143,0-13.162-2.143-14.325-11.02H896.729z
			 M906.341,703.938c-7.407,0-10.714,4.346-10.714,9.55c0,5.203,3.307,9.55,10.714,9.55c7.469,0,10.774-4.347,10.774-9.55
			C917.115,708.284,913.81,703.938,906.341,703.938z"/>
		<path fill="#00509E" d="M946.32,717.161c0.796,0.062,1.714,0.062,4.102,0.062c5.51,0,8.326-2.388,8.326-6.244
			c0-5.388-4.714-7.04-9.306-7.04c-6.489,0-9.489,3.244-9.795,8.938h-6.122c0.49-9.733,6.979-14.08,16.101-14.08
			c10.958,0,15.61,5.693,15.61,11.692c0,3.918-1.959,7.652-6.366,8.754v0.123c4.836,0.857,8.265,4.775,8.265,10.224
			c0,7.346-5.081,13.651-16.651,13.651c-4.041,0-18.06,0-18.06-14.447h6.122c0.367,7.224,4.897,9.305,11.387,9.305
			c6.856,0,10.713-3.244,10.713-8.08c0-4.959-4.408-7.652-10.713-7.652c-2.204,0-3,0.122-3.612,0.122V717.161z"/>
		<path fill="#00509E" d="M995.055,698.796c13.468,0,17.691,10.04,17.691,22.222c0,12.183-4.224,22.223-17.691,22.223
			c-13.469,0-17.692-10.04-17.692-22.223C977.362,708.836,981.586,698.796,995.055,698.796z M995.055,703.938
			c-10.469,0-11.203,11.998-11.203,17.079c0,5.082,0.734,17.08,11.203,17.08c10.468,0,11.202-11.998,11.202-17.08
			C1006.257,715.937,1005.522,703.938,995.055,703.938z"/>
	</g>
</g>
<g id="Farbfelder" display="none">
	<g display="inline">
		<path fill="#1F1E1D" d="M21.816,17.176h-1.184l-2.612-3.796h-0.247v3.796h-0.976V8.505h1.404c0.988,0,1.586,0.13,2.08,0.468
			c0.598,0.403,0.962,1.144,0.962,1.963c0,1.313-0.858,2.249-2.184,2.366L21.816,17.176z M18.384,12.522
			c1.223,0,1.911-0.572,1.911-1.586c0-0.533-0.233-1.001-0.637-1.248c-0.312-0.195-0.702-0.286-1.313-0.286h-0.571v3.12H18.384z"/>
		<path fill="#1F1E1D" d="M31.216,12.821v0.221c0,0.962-0.13,1.612-0.455,2.197c-0.702,1.274-2.132,2.093-3.652,2.093
			c-2.432,0-4.446-2.028-4.446-4.473c0-2.483,2.027-4.498,4.523-4.498c0.962,0,1.911,0.312,2.652,0.884
			c0.338,0.247,0.585,0.494,1.001,1.001l-0.715,0.65c-0.858-1.131-1.742-1.625-2.925-1.625c-1.977,0-3.562,1.612-3.562,3.601
			c0,1.924,1.599,3.549,3.484,3.549c1.079,0,2.171-0.598,2.704-1.482c0.221-0.351,0.312-0.689,0.351-1.222h-2.574v-0.897H31.216z"/>
		<path fill="#1F1E1D" d="M32.997,8.505h1.573c0.91,0,1.508,0.169,1.963,0.546c0.507,0.403,0.807,1.092,0.807,1.807
			c0,0.741-0.261,1.248-0.858,1.677c1.027,0.299,1.638,1.118,1.638,2.197c0,0.741-0.312,1.404-0.871,1.859
			c-0.532,0.429-1.104,0.585-2.093,0.585h-2.158V8.505z M34.7,12.327c0.637,0,0.937-0.078,1.223-0.338
			c0.299-0.26,0.468-0.663,0.468-1.118c0-0.468-0.169-0.884-0.455-1.144c-0.273-0.234-0.611-0.325-1.209-0.325h-0.754v2.925H34.7z
			 M35.077,16.279c0.793,0,1.157-0.091,1.521-0.377c0.351-0.286,0.559-0.728,0.559-1.196c0-0.533-0.286-1.053-0.728-1.287
			c-0.338-0.195-0.78-0.273-1.482-0.273h-0.975v3.133H35.077z"/>
	</g>
	<g display="inline">
		<rect x="12.409" y="22.603" fill="#00509E" width="85.041" height="75.334"/>
		<g>
			<path fill="#FFFFFF" d="M24.868,37.405c0,1.139-0.276,2.146-0.792,2.926c-0.503,0.744-1.307,1.223-2.062,1.223
				c-0.792,0-1.607-0.503-2.111-1.283c-0.504-0.792-0.756-1.739-0.756-2.878c0-2.291,1.259-4.09,2.867-4.09
				C23.633,33.303,24.868,35.078,24.868,37.405z M20.022,37.405c0,1.919,0.84,3.322,1.991,3.322c1.104,0,1.979-1.463,1.979-3.298
				c0-1.883-0.864-3.311-1.991-3.311C20.886,34.118,20.022,35.558,20.022,37.405z"/>
			<path fill="#FFFFFF" d="M31.084,41.422h-1.091l-2.411-3.502h-0.228v3.502h-0.899v-8h1.295c0.911,0,1.463,0.12,1.919,0.432
				c0.552,0.372,0.887,1.056,0.887,1.811c0,1.211-0.792,2.075-2.015,2.183L31.084,41.422z M27.918,37.129
				c1.127,0,1.763-0.528,1.763-1.463c0-0.492-0.216-0.923-0.587-1.151c-0.288-0.18-0.648-0.264-1.211-0.264h-0.528v2.878H27.918z"/>
			<path fill="#FFFFFF" d="M37.192,32.943l-5.229,10.638l-0.696-0.324l5.229-10.626L37.192,32.943z"/>
			<path fill="#FFFFFF" d="M38.478,35.498c0-1.247,0.972-2.195,2.243-2.195c1.283,0,2.243,0.948,2.243,2.195
				c0,0.72-0.396,1.415-1.008,1.763c0.732,0.36,1.164,1.067,1.164,1.931c0,1.355-1.031,2.363-2.398,2.363
				c-1.392,0-2.447-1.007-2.447-2.339c0-0.887,0.396-1.547,1.188-1.955C38.838,36.889,38.478,36.241,38.478,35.498z M39.15,39.167
				c0,0.864,0.684,1.559,1.547,1.559c0.852,0,1.547-0.695,1.547-1.535c0-0.852-0.696-1.535-1.547-1.535
				C39.857,37.656,39.15,38.352,39.15,39.167z M39.33,35.486c0,0.792,0.624,1.415,1.392,1.415s1.391-0.624,1.391-1.391
				s-0.624-1.392-1.391-1.392C39.965,34.118,39.33,34.742,39.33,35.486z"/>
			<path fill="#FFFFFF" d="M50.32,37.405c0,1.139-0.276,2.146-0.792,2.926c-0.504,0.744-1.308,1.223-2.063,1.223
				c-0.792,0-1.607-0.503-2.111-1.283c-0.504-0.792-0.756-1.739-0.756-2.878c0-2.291,1.259-4.09,2.867-4.09
				C49.084,33.303,50.32,35.078,50.32,37.405z M45.474,37.405c0,1.919,0.84,3.322,1.991,3.322c1.103,0,1.979-1.463,1.979-3.298
				c0-1.883-0.864-3.311-1.991-3.311C46.338,34.118,45.474,35.558,45.474,37.405z"/>
			<path fill="#FFFFFF" d="M59.354,37.405v0.204c0,0.888-0.12,1.487-0.419,2.027c-0.648,1.175-1.967,1.931-3.37,1.931
				c-2.243,0-4.102-1.871-4.102-4.126c0-2.291,1.871-4.149,4.174-4.149c0.887,0,1.763,0.288,2.447,0.815
				c0.312,0.228,0.54,0.456,0.923,0.923l-0.66,0.6c-0.792-1.043-1.607-1.499-2.699-1.499c-1.823,0-3.286,1.487-3.286,3.322
				c0,1.775,1.475,3.274,3.214,3.274c0.996,0,2.003-0.551,2.495-1.367c0.204-0.324,0.288-0.636,0.324-1.127H56.02v-0.827H59.354z"/>
			<path fill="#FFFFFF" d="M65.715,32.943l-5.229,10.638l-0.696-0.324l5.229-10.626L65.715,32.943z"/>
			<path fill="#FFFFFF" d="M67.625,34.25l0.468-0.828h1.751v8h-0.9V34.25H67.625z"/>
			<path fill="#FFFFFF" d="M74.788,34.25l-0.528,1.715c0.204-0.036,0.288-0.048,0.456-0.048c1.547,0,2.687,1.175,2.687,2.771
				c0,1.643-1.247,2.866-2.938,2.866c-1.043,0-1.859-0.479-2.446-1.427l0.708-0.503c0.479,0.755,1.043,1.103,1.811,1.103
				c1.115,0,1.991-0.887,1.991-2.027c0-1.127-0.863-1.991-1.979-1.991c-0.503,0-0.899,0.132-1.547,0.54l1.163-3.826h3.178v0.828
				H74.788z"/>
			<path fill="#FFFFFF" d="M79.648,35.498c0-1.247,0.972-2.195,2.243-2.195c1.283,0,2.243,0.948,2.243,2.195
				c0,0.72-0.396,1.415-1.007,1.763c0.731,0.36,1.163,1.067,1.163,1.931c0,1.355-1.031,2.363-2.398,2.363
				c-1.392,0-2.447-1.007-2.447-2.339c0-0.887,0.396-1.547,1.187-1.955C80.008,36.889,79.648,36.241,79.648,35.498z M80.32,39.167
				c0,0.864,0.684,1.559,1.547,1.559c0.852,0,1.547-0.695,1.547-1.535c0-0.852-0.696-1.535-1.547-1.535
				C81.028,37.656,80.32,38.352,80.32,39.167z M80.5,35.486c0,0.792,0.624,1.415,1.392,1.415s1.391-0.624,1.391-1.391
				s-0.624-1.392-1.391-1.392C81.136,34.118,80.5,34.742,80.5,35.486z"/>
			<path fill="#FFFFFF" d="M86.272,33.423h1.451c0.839,0,1.391,0.156,1.811,0.503c0.468,0.372,0.744,1.008,0.744,1.667
				c0,0.684-0.24,1.151-0.792,1.547c0.947,0.276,1.511,1.032,1.511,2.027c0,0.684-0.288,1.295-0.804,1.715
				c-0.492,0.396-1.02,0.54-1.931,0.54h-1.991V33.423z M87.844,36.949c0.587,0,0.863-0.072,1.127-0.312
				c0.276-0.24,0.432-0.612,0.432-1.032c0-0.432-0.156-0.815-0.42-1.055c-0.252-0.216-0.563-0.3-1.115-0.3h-0.696v2.698H87.844z
				 M88.191,40.595c0.731,0,1.067-0.084,1.403-0.348c0.324-0.264,0.516-0.672,0.516-1.104c0-0.492-0.264-0.971-0.672-1.188
				c-0.312-0.18-0.719-0.251-1.367-0.251h-0.899v2.89H88.191z"/>
		</g>
	</g>
	<g display="inline">
		<path fill="#1F1E1D" d="M149.493,17.176h-1.184l-2.612-3.796h-0.247v3.796h-0.976V8.505h1.404c0.988,0,1.586,0.13,2.08,0.468
			c0.598,0.403,0.962,1.144,0.962,1.963c0,1.313-0.858,2.249-2.184,2.366L149.493,17.176z M146.06,12.522
			c1.223,0,1.911-0.572,1.911-1.586c0-0.533-0.233-1.001-0.637-1.248c-0.312-0.195-0.702-0.286-1.313-0.286h-0.571v3.12H146.06z"/>
		<path fill="#1F1E1D" d="M158.892,12.821v0.221c0,0.962-0.13,1.612-0.455,2.197c-0.702,1.274-2.132,2.093-3.652,2.093
			c-2.432,0-4.446-2.028-4.446-4.473c0-2.483,2.027-4.498,4.523-4.498c0.962,0,1.911,0.312,2.652,0.884
			c0.338,0.247,0.585,0.494,1.001,1.001l-0.715,0.65c-0.858-1.131-1.742-1.625-2.925-1.625c-1.977,0-3.562,1.612-3.562,3.601
			c0,1.924,1.599,3.549,3.484,3.549c1.079,0,2.171-0.598,2.704-1.482c0.221-0.351,0.312-0.689,0.351-1.222h-2.574v-0.897H158.892z"
			/>
		<path fill="#1F1E1D" d="M160.673,8.505h1.573c0.91,0,1.508,0.169,1.963,0.546c0.507,0.403,0.807,1.092,0.807,1.807
			c0,0.741-0.261,1.248-0.858,1.677c1.027,0.299,1.638,1.118,1.638,2.197c0,0.741-0.312,1.404-0.871,1.859
			c-0.532,0.429-1.104,0.585-2.093,0.585h-2.158V8.505z M162.376,12.327c0.637,0,0.937-0.078,1.223-0.338
			c0.299-0.26,0.468-0.663,0.468-1.118c0-0.468-0.169-0.884-0.455-1.144c-0.273-0.234-0.611-0.325-1.209-0.325h-0.754v2.925H162.376
			z M162.753,16.279c0.793,0,1.157-0.091,1.521-0.377c0.351-0.286,0.559-0.728,0.559-1.196c0-0.533-0.286-1.053-0.728-1.287
			c-0.338-0.195-0.78-0.273-1.482-0.273h-0.975v3.133H162.753z"/>
	</g>
	<g display="inline">
		<rect x="140.085" y="22.603" fill="#E20015" width="85.04" height="75.334"/>
		<g>
			<path fill="#FFFFFF" d="M152.041,40.595v0.828h-5.157l2.902-3.37c1.067-1.235,1.392-1.787,1.392-2.399
				c0-0.851-0.708-1.535-1.607-1.535c-0.54,0-1.067,0.276-1.331,0.696c-0.156,0.252-0.228,0.468-0.264,0.947h-0.899
				c0.072-0.684,0.156-0.995,0.408-1.379c0.432-0.672,1.224-1.08,2.075-1.08c1.403,0,2.495,1.043,2.495,2.375
				c0,0.875-0.312,1.427-1.727,3.046l-1.631,1.871H152.041z"/>
			<path fill="#FFFFFF" d="M158.844,40.595v0.828h-5.157l2.902-3.37c1.067-1.235,1.392-1.787,1.392-2.399
				c0-0.851-0.708-1.535-1.607-1.535c-0.54,0-1.067,0.276-1.331,0.696c-0.156,0.252-0.228,0.468-0.264,0.947h-0.899
				c0.072-0.684,0.156-0.995,0.408-1.379c0.432-0.672,1.224-1.08,2.075-1.08c1.403,0,2.495,1.043,2.495,2.375
				c0,0.875-0.312,1.427-1.727,3.046l-1.631,1.871H158.844z"/>
			<path fill="#FFFFFF" d="M164.581,33.723l-1.847,2.566c0.312-0.096,0.48-0.12,0.744-0.12c1.416,0,2.555,1.175,2.555,2.638
				c0,1.511-1.235,2.747-2.747,2.747s-2.758-1.223-2.758-2.698c0-0.612,0.228-1.259,0.66-1.847l2.722-3.79L164.581,33.723z
				 M161.402,38.844c0,1.043,0.839,1.883,1.883,1.883c1.02,0,1.871-0.852,1.871-1.859c0-1.067-0.828-1.907-1.871-1.907
				S161.402,37.8,161.402,38.844z"/>
			<path fill="#FFFFFF" d="M172.368,41.422h-1.091l-2.411-3.502h-0.228v3.502h-0.899v-8h1.295c0.911,0,1.463,0.12,1.919,0.432
				c0.552,0.372,0.887,1.056,0.887,1.811c0,1.211-0.792,2.075-2.015,2.183L172.368,41.422z M169.202,37.129
				c1.127,0,1.763-0.528,1.763-1.463c0-0.492-0.216-0.923-0.587-1.151c-0.288-0.18-0.648-0.264-1.211-0.264h-0.528v2.878H169.202z"
				/>
			<path fill="#FFFFFF" d="M178.476,32.943l-5.229,10.638l-0.696-0.324l5.229-10.626L178.476,32.943z"/>
			<path fill="#FFFFFF" d="M184.8,37.405c0,1.139-0.276,2.146-0.792,2.926c-0.504,0.744-1.308,1.223-2.063,1.223
				c-0.792,0-1.607-0.503-2.111-1.283c-0.504-0.792-0.756-1.739-0.756-2.878c0-2.291,1.259-4.09,2.867-4.09
				C183.564,33.303,184.8,35.078,184.8,37.405z M179.954,37.405c0,1.919,0.84,3.322,1.991,3.322c1.103,0,1.979-1.463,1.979-3.298
				c0-1.883-0.864-3.311-1.991-3.311C180.818,34.118,179.954,35.558,179.954,37.405z"/>
			<path fill="#FFFFFF" d="M193.834,37.405v0.204c0,0.888-0.12,1.487-0.419,2.027c-0.648,1.175-1.967,1.931-3.37,1.931
				c-2.243,0-4.102-1.871-4.102-4.126c0-2.291,1.871-4.149,4.174-4.149c0.887,0,1.763,0.288,2.447,0.815
				c0.312,0.228,0.54,0.456,0.923,0.923l-0.66,0.6c-0.792-1.043-1.607-1.499-2.699-1.499c-1.823,0-3.286,1.487-3.286,3.322
				c0,1.775,1.475,3.274,3.214,3.274c0.996,0,2.003-0.551,2.495-1.367c0.204-0.324,0.288-0.636,0.324-1.127H190.5v-0.827H193.834z"
				/>
			<path fill="#FFFFFF" d="M200.196,32.943l-5.229,10.638l-0.696-0.324l5.229-10.626L200.196,32.943z"/>
			<path fill="#FFFFFF" d="M206.016,40.595v0.828h-5.157l2.902-3.37c1.067-1.235,1.391-1.787,1.391-2.399
				c0-0.851-0.708-1.535-1.607-1.535c-0.54,0-1.067,0.276-1.331,0.696c-0.156,0.252-0.228,0.468-0.264,0.947h-0.899
				c0.072-0.684,0.156-0.995,0.408-1.379c0.432-0.672,1.224-1.08,2.075-1.08c1.403,0,2.495,1.043,2.495,2.375
				c0,0.875-0.312,1.427-1.727,3.046l-1.631,1.871H206.016z"/>
			<path fill="#FFFFFF" d="M207.84,34.25l0.468-0.828h1.751v8h-0.899V34.25H207.84z"/>
			<path fill="#FFFFFF" d="M213.84,33.423h1.451c0.839,0,1.391,0.156,1.811,0.503c0.468,0.372,0.744,1.008,0.744,1.667
				c0,0.684-0.24,1.151-0.792,1.547c0.947,0.276,1.511,1.032,1.511,2.027c0,0.684-0.288,1.295-0.804,1.715
				c-0.492,0.396-1.02,0.54-1.931,0.54h-1.991V33.423z M215.412,36.949c0.587,0,0.863-0.072,1.127-0.312
				c0.276-0.24,0.432-0.612,0.432-1.032c0-0.432-0.156-0.815-0.42-1.055c-0.252-0.216-0.563-0.3-1.115-0.3h-0.696v2.698H215.412z
				 M215.759,40.595c0.731,0,1.067-0.084,1.403-0.348c0.324-0.264,0.516-0.672,0.516-1.104c0-0.492-0.264-0.971-0.672-1.188
				c-0.312-0.18-0.719-0.251-1.367-0.251h-0.899v2.89H215.759z"/>
		</g>
	</g>
	<g display="inline">
		<path fill="#999A9C" d="M337.832,898.223h2.737c1.232,0,2.305,0.128,3.329,0.624c1.761,0.848,2.801,2.673,2.801,4.802
			c0,1.921-0.864,3.794-2.145,4.834c-1.216,1.009-2.625,1.232-4.354,1.232h-3.89L337.832,898.223z M338.825,899.326l-1.233,9.284
			h1.297c1.792,0,3.153-0.016,4.258-0.576c1.408-0.721,2.385-2.385,2.385-4.354c0-1.681-0.769-3.073-2.145-3.794
			c-1.008-0.528-2.017-0.561-3.153-0.561H338.825z"/>
		<path fill="#999A9C" d="M356.603,901.216h1.137l-1.137,8.499h-1.104l0.16-1.28c-0.976,0.992-2.097,1.504-3.377,1.504
			c-2.321,0-3.969-1.648-3.969-4.001c0-2.817,2.337-4.946,4.866-4.946c1.489,0,2.497,0.624,3.233,1.841L356.603,901.216z
			 M356.203,904.993c0-1.825-1.281-2.993-3.009-2.993c-2.049,0-3.793,1.664-3.793,3.921c0,1.857,1.264,3.01,3.009,3.01
			C354.65,908.931,356.203,907.202,356.203,904.993z"/>
		<path fill="#999A9C" d="M359.16,907.762c0.64,0.769,1.344,1.152,2.049,1.152c0.768,0,1.568-0.624,1.568-1.488
			c0-0.464-0.24-0.929-0.672-1.232c-1.729-1.232-2.641-1.729-2.641-2.929c0-1.281,1.12-2.273,2.529-2.273
			c1.057,0,1.649,0.496,2.209,1.169l-0.592,0.896c-0.464-0.657-1.008-1.057-1.697-1.057c-0.8,0-1.36,0.656-1.36,1.216
			c0,0.385,0.272,0.801,0.736,1.104c1.537,1.009,2.577,1.633,2.577,3.138c0,1.473-1.168,2.465-2.705,2.465
			c-1.024,0-1.953-0.496-2.657-1.393L359.16,907.762z"/>
		<path fill="#999A9C" d="M371.368,898.223h1.153l-1.377,10.388h4.962l-0.128,1.104h-6.13L371.368,898.223z"/>
		<path fill="#999A9C" d="M386.059,905.057c0,2.674-1.969,4.866-4.882,4.866c-2.353,0-3.921-1.681-3.921-3.97
			c0-2.785,2.145-4.962,4.882-4.962C384.346,900.991,386.059,902.64,386.059,905.057z M378.344,905.89
			c0,1.761,1.185,3.024,2.978,3.024c2.193,0,3.649-1.76,3.649-3.873c0-1.825-1.232-3.041-2.865-3.041
			C380.008,902,378.344,903.633,378.344,905.89z"/>
		<path fill="#999A9C" d="M396.011,901.216h1.072l-0.976,7.187c-0.192,1.425-0.368,2.545-1.345,3.474
			c-0.752,0.72-1.969,1.168-3.297,1.168c-1.889,0-3.265-0.769-3.985-2.289l0.976-0.336c0.576,1.057,1.633,1.617,2.993,1.617
			c1.777,0,3.089-0.977,3.297-2.098c0.096-0.479,0.192-0.976,0.256-1.393l0.048-0.336c-0.928,1.009-2.049,1.505-3.377,1.505
			c-2.433,0-3.905-1.681-3.905-3.874c0-2.721,2.401-4.85,4.786-4.85c1.409,0,2.449,0.624,3.25,1.841L396.011,901.216z
			 M388.856,905.89c0,1.712,1.168,2.816,2.929,2.816c2.145,0,3.777-1.584,3.777-3.761c0-1.841-1.329-2.945-2.801-2.945
			C390.601,902,388.856,903.633,388.856,905.89z"/>
		<path fill="#999A9C" d="M407.307,905.057c0,2.674-1.969,4.866-4.882,4.866c-2.353,0-3.921-1.681-3.921-3.97
			c0-2.785,2.145-4.962,4.882-4.962C405.594,900.991,407.307,902.64,407.307,905.057z M399.592,905.89
			c0,1.761,1.185,3.024,2.978,3.024c2.193,0,3.649-1.76,3.649-3.873c0-1.825-1.232-3.041-2.865-3.041
			C401.256,902,399.592,903.633,399.592,905.89z"/>
		<path fill="#999A9C" d="M414.264,901.216h1.041l-1.136,8.499h-1.073L414.264,901.216z M416.009,898.591
			c0,0.496-0.4,0.88-0.88,0.88c-0.48,0-0.88-0.4-0.88-0.88c0-0.48,0.384-0.881,0.88-0.881
			C415.608,897.71,416.009,898.11,416.009,898.591z"/>
		<path fill="#999A9C" d="M416.568,907.762c0.64,0.769,1.344,1.152,2.049,1.152c0.768,0,1.568-0.624,1.568-1.488
			c0-0.464-0.24-0.929-0.672-1.232c-1.729-1.232-2.641-1.729-2.641-2.929c0-1.281,1.12-2.273,2.529-2.273
			c1.057,0,1.649,0.496,2.209,1.169l-0.592,0.896c-0.464-0.657-1.008-1.057-1.697-1.057c-0.8,0-1.36,0.656-1.36,1.216
			c0,0.385,0.272,0.801,0.736,1.104c1.537,1.009,2.577,1.633,2.577,3.138c0,1.473-1.168,2.465-2.705,2.465
			c-1.024,0-1.953-0.496-2.657-1.393L416.568,907.762z"/>
		<path fill="#999A9C" d="M425.225,898.03h1.073l-0.417,3.186h1.681l-0.112,0.96h-1.697l-1.024,7.539h-1.104l1.041-7.539h-1.473
			l0.128-0.96h1.457L425.225,898.03z"/>
		<path fill="#999A9C" d="M440.49,908.194c-0.832,1.04-2.193,1.744-3.777,1.744c-2.561,0-4.001-1.84-4.001-4.033
			c0-2.593,2.129-4.93,4.946-4.93c2.273,0,3.777,1.744,3.777,3.938c0,0.224-0.032,0.544-0.064,0.769H433.8v0.224
			c0,1.761,1.152,3.025,2.945,3.025c1.184,0,2.257-0.496,2.929-1.393L440.49,908.194z M440.378,904.721
			c-0.064-1.633-1.232-2.673-2.785-2.673c-1.633,0-3.057,0.944-3.618,2.673H440.378z"/>
		<path fill="#999A9C" d="M443.928,901.216h1.04l-1.136,8.499h-1.073L443.928,901.216z M445.672,898.591c0,0.496-0.4,0.88-0.88,0.88
			c-0.48,0-0.88-0.4-0.88-0.88c0-0.48,0.384-0.881,0.88-0.881C445.272,897.71,445.672,898.11,445.672,898.591z"/>
		<path fill="#999A9C" d="M448.231,902.512c0.865-1.008,1.857-1.521,3.009-1.521c1.681,0,2.913,1.104,2.913,2.93
			c0,0.816-0.112,1.456-0.176,1.889l-0.528,3.905h-1.072l0.528-3.905c0.064-0.528,0.16-1.152,0.16-1.825
			c0-1.2-0.752-1.984-1.953-1.984c-1.072,0-2.065,0.528-2.625,1.408c-0.4,0.624-0.576,1.521-0.736,2.625l-0.512,3.682h-1.072
			l1.184-8.499h1.041L448.231,902.512z"/>
		<path fill="#999A9C" d="M463.434,908.435c-0.977,0.992-2.097,1.504-3.377,1.504c-2.321,0-3.97-1.648-3.97-4.001
			c0-2.817,2.337-4.946,4.866-4.946c1.489,0,2.497,0.624,3.233,1.841l0.64-4.898h1.121l-1.569,11.781h-1.104L463.434,908.435z
			 M463.978,904.993c0-1.825-1.281-2.993-3.009-2.993c-2.049,0-3.793,1.664-3.793,3.921c0,1.857,1.264,3.01,3.009,3.01
			C462.425,908.931,463.978,907.202,463.978,904.993z"/>
		<path fill="#999A9C" d="M474.81,908.194c-0.832,1.04-2.193,1.744-3.777,1.744c-2.561,0-4.001-1.84-4.001-4.033
			c0-2.593,2.129-4.93,4.946-4.93c2.273,0,3.777,1.744,3.777,3.938c0,0.224-0.032,0.544-0.064,0.769h-7.571v0.224
			c0,1.761,1.152,3.025,2.945,3.025c1.184,0,2.257-0.496,2.929-1.393L474.81,908.194z M474.698,904.721
			c-0.064-1.633-1.232-2.673-2.785-2.673c-1.633,0-3.057,0.944-3.618,2.673H474.698z"/>
		<path fill="#999A9C" d="M478.439,901.216h1.088l-0.48,3.553c-0.096,0.721-0.208,1.377-0.208,1.938
			c0,1.344,1.009,2.208,2.369,2.208c0.848,0,1.648-0.384,2.113-0.992c0.528-0.688,0.592-1.536,0.72-2.465l0.608-4.241h1.057
			l-0.433,3.217c-0.256,1.889-0.496,3.249-1.072,4.065c-0.64,0.881-1.761,1.425-3.041,1.425c-1.985,0-3.361-1.328-3.361-3.169
			c0-0.353,0.064-1.201,0.208-2.306L478.439,901.216z"/>
		<path fill="#999A9C" d="M489.527,898.03h1.073l-0.417,3.186h1.681l-0.112,0.96h-1.697l-1.024,7.539h-1.104l1.041-7.539h-1.473
			l0.128-0.96h1.457L489.527,898.03z"/>
		<path fill="#999A9C" d="M493.398,901.216h1.041l-1.136,8.499h-1.073L493.398,901.216z M495.144,898.591
			c0,0.496-0.4,0.88-0.88,0.88c-0.48,0-0.88-0.4-0.88-0.88c0-0.48,0.384-0.881,0.88-0.881
			C494.743,897.71,495.144,898.11,495.144,898.591z"/>
		<path fill="#999A9C" d="M504.026,901.216h1.072l-0.976,7.187c-0.192,1.425-0.368,2.545-1.345,3.474
			c-0.752,0.72-1.969,1.168-3.297,1.168c-1.889,0-3.265-0.769-3.985-2.289l0.976-0.336c0.576,1.057,1.633,1.617,2.993,1.617
			c1.777,0,3.089-0.977,3.297-2.098c0.096-0.479,0.192-0.976,0.256-1.393l0.048-0.336c-0.928,1.009-2.049,1.505-3.377,1.505
			c-2.433,0-3.905-1.681-3.905-3.874c0-2.721,2.401-4.85,4.786-4.85c1.409,0,2.449,0.624,3.25,1.841L504.026,901.216z
			 M496.871,905.89c0,1.712,1.168,2.816,2.929,2.816c2.145,0,3.777-1.584,3.777-3.761c0-1.841-1.329-2.945-2.801-2.945
			C498.616,902,496.871,903.633,496.871,905.89z"/>
		<path fill="#999A9C" d="M512.438,900.463c0.176-1.393,0.512-2.769,1.969-2.769c0.56,0,0.96,0.256,1.329,0.528l-0.144,1.024
			c-0.368-0.337-0.736-0.545-1.057-0.545c-0.672,0-0.848,0.721-0.977,1.601l-0.128,0.913h1.745l-0.112,0.96h-1.745l-1.057,7.539
			h-1.121l1.073-7.539h-1.073l0.128-0.96h1.072L512.438,900.463z"/>
		<path fill="#999A9C" d="M523.785,908.194c-0.832,1.04-2.193,1.744-3.777,1.744c-2.561,0-4.001-1.84-4.001-4.033
			c0-2.593,2.129-4.93,4.946-4.93c2.273,0,3.777,1.744,3.777,3.938c0,0.224-0.032,0.544-0.064,0.769h-7.571v0.224
			c0,1.761,1.152,3.025,2.945,3.025c1.184,0,2.257-0.496,2.929-1.393L523.785,908.194z M523.673,904.721
			c-0.064-1.633-1.232-2.673-2.785-2.673c-1.633,0-3.057,0.944-3.618,2.673H523.673z"/>
		<path fill="#999A9C" d="M526.326,907.762c0.64,0.769,1.344,1.152,2.049,1.152c0.768,0,1.568-0.624,1.568-1.488
			c0-0.464-0.24-0.929-0.672-1.232c-1.729-1.232-2.641-1.729-2.641-2.929c0-1.281,1.12-2.273,2.529-2.273
			c1.057,0,1.649,0.496,2.209,1.169l-0.592,0.896c-0.464-0.657-1.008-1.057-1.697-1.057c-0.8,0-1.36,0.656-1.36,1.216
			c0,0.385,0.272,0.801,0.736,1.104c1.537,1.009,2.577,1.633,2.577,3.138c0,1.473-1.168,2.465-2.705,2.465
			c-1.024,0-1.953-0.496-2.657-1.393L526.326,907.762z"/>
		<path fill="#999A9C" d="M534.982,898.03h1.073l-0.417,3.186h1.681l-0.112,0.96h-1.697l-1.024,7.539h-1.104l1.041-7.539h-1.473
			l0.128-0.96h1.457L534.982,898.03z"/>
		<path fill="#999A9C" d="M546.281,901.216h1.072l-0.976,7.187c-0.192,1.425-0.368,2.545-1.345,3.474
			c-0.752,0.72-1.969,1.168-3.297,1.168c-1.889,0-3.265-0.769-3.985-2.289l0.976-0.336c0.576,1.057,1.633,1.617,2.993,1.617
			c1.777,0,3.089-0.977,3.297-2.098c0.096-0.479,0.192-0.976,0.256-1.393l0.048-0.336c-0.928,1.009-2.049,1.505-3.377,1.505
			c-2.433,0-3.905-1.681-3.905-3.874c0-2.721,2.401-4.85,4.786-4.85c1.409,0,2.449,0.624,3.25,1.841L546.281,901.216z
			 M539.126,905.89c0,1.712,1.168,2.816,2.929,2.816c2.145,0,3.777-1.584,3.777-3.761c0-1.841-1.329-2.945-2.801-2.945
			C540.871,902,539.126,903.633,539.126,905.89z"/>
		<path fill="#999A9C" d="M556.584,908.194c-0.832,1.04-2.193,1.744-3.777,1.744c-2.561,0-4.001-1.84-4.001-4.033
			c0-2.593,2.129-4.93,4.946-4.93c2.273,0,3.777,1.744,3.777,3.938c0,0.224-0.032,0.544-0.064,0.769h-7.571v0.224
			c0,1.761,1.152,3.025,2.945,3.025c1.184,0,2.257-0.496,2.929-1.393L556.584,908.194z M556.472,904.721
			c-0.064-1.633-1.232-2.673-2.785-2.673c-1.633,0-3.057,0.944-3.618,2.673H556.472z"/>
		<path fill="#999A9C" d="M560.501,897.934h1.072l-1.632,11.781h-1.089L560.501,897.934z"/>
		<path fill="#999A9C" d="M570.184,908.194c-0.832,1.04-2.193,1.744-3.777,1.744c-2.561,0-4.001-1.84-4.001-4.033
			c0-2.593,2.129-4.93,4.946-4.93c2.273,0,3.777,1.744,3.777,3.938c0,0.224-0.032,0.544-0.064,0.769h-7.571v0.224
			c0,1.761,1.152,3.025,2.945,3.025c1.184,0,2.257-0.496,2.929-1.393L570.184,908.194z M570.072,904.721
			c-0.064-1.633-1.232-2.673-2.785-2.673c-1.633,0-3.057,0.944-3.618,2.673H570.072z"/>
		<path fill="#999A9C" d="M581.048,901.216h1.073l-0.977,7.187c-0.192,1.425-0.368,2.545-1.345,3.474
			c-0.752,0.72-1.969,1.168-3.297,1.168c-1.89,0-3.266-0.769-3.986-2.289l0.977-0.336c0.576,1.057,1.633,1.617,2.993,1.617
			c1.777,0,3.09-0.977,3.298-2.098c0.096-0.479,0.191-0.976,0.256-1.393l0.048-0.336c-0.929,1.009-2.049,1.505-3.377,1.505
			c-2.434,0-3.906-1.681-3.906-3.874c0-2.721,2.401-4.85,4.786-4.85c1.408,0,2.449,0.624,3.249,1.841L581.048,901.216z
			 M573.894,905.89c0,1.712,1.168,2.816,2.929,2.816c2.146,0,3.778-1.584,3.778-3.761c0-1.841-1.329-2.945-2.802-2.945
			C575.638,902,573.894,903.633,573.894,905.89z"/>
		<path fill="#999A9C" d="M585.941,898.03h1.072l-0.416,3.186h1.681l-0.112,0.96h-1.696l-1.024,7.539h-1.104l1.04-7.539h-1.472
			l0.128-0.96h1.456L585.941,898.03z"/>
		<path fill="#999A9C" d="M594.437,901.216h1.088l-0.479,3.553c-0.097,0.721-0.208,1.377-0.208,1.938
			c0,1.344,1.008,2.208,2.369,2.208c0.848,0,1.648-0.384,2.112-0.992c0.528-0.688,0.593-1.536,0.721-2.465l0.608-4.241h1.056
			l-0.432,3.217c-0.257,1.889-0.496,3.249-1.072,4.065c-0.641,0.881-1.761,1.425-3.042,1.425c-1.984,0-3.361-1.328-3.361-3.169
			c0-0.353,0.064-1.201,0.208-2.306L594.437,901.216z"/>
		<path fill="#999A9C" d="M605.076,902.512c0.864-1.008,1.857-1.521,3.01-1.521c1.681,0,2.913,1.104,2.913,2.93
			c0,0.816-0.112,1.456-0.177,1.889l-0.527,3.905h-1.073l0.528-3.905c0.064-0.528,0.16-1.152,0.16-1.825
			c0-1.2-0.752-1.984-1.952-1.984c-1.073,0-2.065,0.528-2.626,1.408c-0.399,0.624-0.576,1.521-0.736,2.625l-0.512,3.682h-1.072
			l1.185-8.499h1.04L605.076,902.512z"/>
		<path fill="#999A9C" d="M620.278,908.435c-0.977,0.992-2.097,1.504-3.377,1.504c-2.321,0-3.97-1.648-3.97-4.001
			c0-2.817,2.337-4.946,4.865-4.946c1.489,0,2.497,0.624,3.233,1.841l0.641-4.898h1.12l-1.568,11.781h-1.104L620.278,908.435z
			 M620.822,904.993c0-1.825-1.28-2.993-3.009-2.993c-2.049,0-3.794,1.664-3.794,3.921c0,1.857,1.265,3.01,3.01,3.01
			C619.27,908.931,620.822,907.202,620.822,904.993z"/>
		<path fill="#999A9C" d="M635.67,908.435c-0.977,0.992-2.097,1.504-3.377,1.504c-2.321,0-3.97-1.648-3.97-4.001
			c0-2.817,2.337-4.946,4.865-4.946c1.489,0,2.497,0.624,3.233,1.841l0.641-4.898h1.12l-1.568,11.781h-1.104L635.67,908.435z
			 M636.214,904.993c0-1.825-1.28-2.993-3.009-2.993c-2.049,0-3.794,1.664-3.794,3.921c0,1.857,1.265,3.01,3.01,3.01
			C634.661,908.931,636.214,907.202,636.214,904.993z"/>
		<path fill="#999A9C" d="M647.559,901.216h1.136l-1.136,8.499h-1.104l0.16-1.28c-0.977,0.992-2.098,1.504-3.378,1.504
			c-2.32,0-3.97-1.648-3.97-4.001c0-2.817,2.337-4.946,4.866-4.946c1.488,0,2.497,0.624,3.233,1.841L647.559,901.216z
			 M647.158,904.993c0-1.825-1.28-2.993-3.01-2.993c-2.049,0-3.793,1.664-3.793,3.921c0,1.857,1.265,3.01,3.009,3.01
			C645.605,908.931,647.158,907.202,647.158,904.993z"/>
		<path fill="#999A9C" d="M651.715,902.271c0.593-0.816,1.441-1.28,2.321-1.28c0.448,0,0.752,0.128,0.977,0.225l-0.528,0.992
			c-0.16-0.064-0.4-0.145-0.672-0.145c-0.561,0-1.137,0.288-1.569,0.801c-0.64,0.769-0.864,1.841-1.056,3.249l-0.497,3.602h-1.072
			l1.152-8.499h1.089L651.715,902.271z"/>
		<path fill="#999A9C" d="M657.232,900.463c0.176-1.393,0.512-2.769,1.969-2.769c0.561,0,0.96,0.256,1.328,0.528l-0.144,1.024
			c-0.368-0.337-0.736-0.545-1.057-0.545c-0.672,0-0.849,0.721-0.977,1.601l-0.128,0.913h1.745l-0.112,0.96h-1.745l-1.056,7.539
			h-1.121l1.072-7.539h-1.072l0.128-0.96h1.073L657.232,900.463z"/>
		<path fill="#999A9C" d="M667.151,902.512c0.864-1.008,1.857-1.521,3.01-1.521c1.681,0,2.913,1.104,2.913,2.93
			c0,0.816-0.112,1.456-0.177,1.889l-0.527,3.905h-1.073l0.528-3.905c0.064-0.528,0.16-1.152,0.16-1.825
			c0-1.2-0.752-1.984-1.952-1.984c-1.073,0-2.065,0.528-2.626,1.408c-0.399,0.624-0.576,1.521-0.736,2.625l-0.512,3.682h-1.072
			l1.185-8.499h1.04L667.151,902.512z"/>
		<path fill="#999A9C" d="M675.807,901.216h1.041l-1.137,8.499h-1.072L675.807,901.216z M677.552,898.591
			c0,0.496-0.4,0.88-0.881,0.88c-0.479,0-0.88-0.4-0.88-0.88c0-0.48,0.384-0.881,0.88-0.881
			C677.151,897.71,677.552,898.11,677.552,898.591z"/>
		<path fill="#999A9C" d="M686.594,908.162c-1.104,1.217-2.4,1.776-4.129,1.776c-2.722,0-4.274-1.648-4.274-4.033
			c0-2.753,2.257-4.914,5.122-4.914c1.697,0,3.073,0.752,3.778,2.049l-0.913,0.528c-0.624-0.992-1.616-1.505-2.881-1.505
			c-2.369,0-4.018,1.681-4.018,3.777c0,1.825,1.185,3.09,3.137,3.09c1.297,0,2.594-0.576,3.282-1.409L686.594,908.162z"/>
		<path fill="#999A9C" d="M689.999,897.934h1.088l-0.624,4.562c0.864-0.992,1.857-1.521,3.01-1.521c1.601,0,2.913,1.072,2.913,2.945
			c0,0.752-0.112,1.376-0.177,1.889l-0.527,3.905h-1.073l0.528-3.905c0.097-0.673,0.16-1.312,0.16-1.841
			c0-1.217-0.784-1.985-1.969-1.985c-1.057,0-2.064,0.545-2.609,1.44c-0.384,0.625-0.592,1.521-0.736,2.609l-0.512,3.682h-1.089
			L689.999,897.934z"/>
		<path fill="#999A9C" d="M700.671,898.03h1.072l-0.416,3.186h1.681l-0.112,0.96h-1.696l-1.024,7.539h-1.104l1.04-7.539h-1.472
			l0.128-0.96h1.456L700.671,898.03z"/>
		<path fill="#999A9C" d="M710.078,902.416c0.704-0.944,1.825-1.425,2.802-1.425c1.168,0,2.145,0.624,2.545,1.905
			c0.768-1.217,1.969-1.905,3.153-1.905c1.488,0,2.721,1.009,2.721,2.753c0,0.448-0.08,0.913-0.128,1.297l-0.624,4.674h-1.073
			l0.577-4.082c0.096-0.72,0.159-1.344,0.159-1.809c0-1.04-0.64-1.761-1.744-1.761c-0.688,0-1.28,0.208-1.809,0.688
			c-0.816,0.736-1.089,1.648-1.265,2.881l-0.576,4.082h-1.089l0.641-4.674c0.048-0.368,0.112-0.801,0.112-1.2
			c0-1.152-0.753-1.841-1.745-1.841c-0.672,0-1.36,0.288-1.873,0.736c-0.736,0.656-1.056,1.633-1.248,2.977l-0.561,4.002h-1.088
			l1.216-8.499h1.057L710.078,902.416z"/>
		<path fill="#999A9C" d="M731.937,905.057c0,2.674-1.969,4.866-4.882,4.866c-2.353,0-3.921-1.681-3.921-3.97
			c0-2.785,2.145-4.962,4.882-4.962C730.225,900.991,731.937,902.64,731.937,905.057z M724.222,905.89
			c0,1.761,1.185,3.024,2.978,3.024c2.192,0,3.649-1.76,3.649-3.873c0-1.825-1.232-3.041-2.865-3.041
			C725.887,902,724.222,903.633,724.222,905.89z"/>
		<path fill="#999A9C" d="M741.008,908.435c-0.977,0.992-2.097,1.504-3.377,1.504c-2.321,0-3.97-1.648-3.97-4.001
			c0-2.817,2.337-4.946,4.865-4.946c1.489,0,2.497,0.624,3.233,1.841l0.641-4.898h1.12l-1.568,11.781h-1.104L741.008,908.435z
			 M741.552,904.993c0-1.825-1.28-2.993-3.009-2.993c-2.049,0-3.794,1.664-3.794,3.921c0,1.857,1.265,3.01,3.01,3.01
			C739.999,908.931,741.552,907.202,741.552,904.993z"/>
		<path fill="#999A9C" d="M745.421,901.216h1.041l-1.137,8.499h-1.072L745.421,901.216z M747.166,898.591
			c0,0.496-0.4,0.88-0.881,0.88c-0.479,0-0.88-0.4-0.88-0.88c0-0.48,0.384-0.881,0.88-0.881
			C746.766,897.71,747.166,898.11,747.166,898.591z"/>
		<path fill="#999A9C" d="M749.262,900.463c0.176-1.393,0.512-2.769,1.969-2.769c0.561,0,0.96,0.256,1.328,0.528l-0.144,1.024
			c-0.368-0.337-0.736-0.545-1.057-0.545c-0.672,0-0.849,0.721-0.977,1.601l-0.128,0.913h1.745l-0.112,0.96h-1.745l-1.056,7.539
			h-1.121l1.072-7.539h-1.072l0.128-0.96h1.073L749.262,900.463z"/>
		<path fill="#999A9C" d="M753.645,901.216h1.041l-1.137,8.499h-1.072L753.645,901.216z M755.39,898.591
			c0,0.496-0.4,0.88-0.881,0.88c-0.479,0-0.88-0.4-0.88-0.88c0-0.48,0.384-0.881,0.88-0.881
			C754.989,897.71,755.39,898.11,755.39,898.591z"/>
		<path fill="#999A9C" d="M756.285,901.216h5.842l-5.074,7.539h4.61l-0.128,0.96h-6.419l5.106-7.539h-4.066L756.285,901.216z"/>
		<path fill="#999A9C" d="M763.645,901.216h1.041l-1.137,8.499h-1.072L763.645,901.216z M765.39,898.591
			c0,0.496-0.4,0.88-0.881,0.88c-0.479,0-0.88-0.4-0.88-0.88c0-0.48,0.384-0.881,0.88-0.881
			C764.989,897.71,765.39,898.11,765.39,898.591z"/>
		<path fill="#999A9C" d="M773.808,908.194c-0.832,1.04-2.192,1.744-3.777,1.744c-2.562,0-4.002-1.84-4.002-4.033
			c0-2.593,2.129-4.93,4.946-4.93c2.272,0,3.777,1.744,3.777,3.938c0,0.224-0.032,0.544-0.063,0.769h-7.571v0.224
			c0,1.761,1.152,3.025,2.945,3.025c1.185,0,2.257-0.496,2.929-1.393L773.808,908.194z M773.695,904.721
			c-0.063-1.633-1.232-2.673-2.785-2.673c-1.632,0-3.057,0.944-3.617,2.673H773.695z"/>
		<path fill="#999A9C" d="M777.948,902.271c0.593-0.816,1.441-1.28,2.321-1.28c0.448,0,0.752,0.128,0.977,0.225l-0.528,0.992
			c-0.16-0.064-0.4-0.145-0.672-0.145c-0.561,0-1.137,0.288-1.569,0.801c-0.64,0.769-0.864,1.841-1.056,3.249l-0.497,3.602h-1.072
			l1.152-8.499h1.089L777.948,902.271z"/>
		<path fill="#999A9C" d="M783.613,898.03h1.072l-0.416,3.186h1.681l-0.112,0.96h-1.696l-1.024,7.539h-1.104l1.04-7.539h-1.472
			l0.128-0.96h1.456L783.613,898.03z"/>
		<path fill="#999A9C" d="M791.18,901.216h1.089l1.744,6.002l3.202-6.002h0.191l1.937,6.05l3.122-6.05h1.185l-4.402,8.499h-0.224
			l-1.969-6.002l-3.186,6.002h-0.208L791.18,901.216z"/>
		<path fill="#999A9C" d="M812.175,908.194c-0.832,1.04-2.192,1.744-3.777,1.744c-2.562,0-4.002-1.84-4.002-4.033
			c0-2.593,2.129-4.93,4.946-4.93c2.272,0,3.777,1.744,3.777,3.938c0,0.224-0.032,0.544-0.063,0.769h-7.571v0.224
			c0,1.761,1.152,3.025,2.945,3.025c1.185,0,2.257-0.496,2.929-1.393L812.175,908.194z M812.062,904.721
			c-0.063-1.633-1.232-2.673-2.785-2.673c-1.632,0-3.057,0.944-3.617,2.673H812.062z"/>
		<path fill="#999A9C" d="M816.315,902.271c0.593-0.816,1.441-1.28,2.321-1.28c0.448,0,0.752,0.128,0.977,0.225l-0.528,0.992
			c-0.16-0.064-0.4-0.145-0.672-0.145c-0.561,0-1.137,0.288-1.569,0.801c-0.64,0.769-0.864,1.841-1.056,3.249l-0.497,3.602h-1.072
			l1.152-8.499h1.089L816.315,902.271z"/>
		<path fill="#999A9C" d="M826.881,908.435c-0.977,0.992-2.097,1.504-3.377,1.504c-2.321,0-3.97-1.648-3.97-4.001
			c0-2.817,2.337-4.946,4.865-4.946c1.489,0,2.497,0.624,3.233,1.841l0.641-4.898h1.12l-1.568,11.781h-1.104L826.881,908.435z
			 M827.425,904.993c0-1.825-1.28-2.993-3.009-2.993c-2.049,0-3.794,1.664-3.794,3.921c0,1.857,1.265,3.01,3.01,3.01
			C825.872,908.931,827.425,907.202,827.425,904.993z"/>
		<path fill="#999A9C" d="M838.257,908.194c-0.832,1.04-2.192,1.744-3.777,1.744c-2.562,0-4.002-1.84-4.002-4.033
			c0-2.593,2.129-4.93,4.946-4.93c2.272,0,3.777,1.744,3.777,3.938c0,0.224-0.032,0.544-0.063,0.769h-7.571v0.224
			c0,1.761,1.152,3.025,2.945,3.025c1.185,0,2.257-0.496,2.929-1.393L838.257,908.194z M838.145,904.721
			c-0.063-1.633-1.232-2.673-2.785-2.673c-1.632,0-3.057,0.944-3.617,2.673H838.145z"/>
		<path fill="#999A9C" d="M842.798,902.512c0.864-1.008,1.857-1.521,3.01-1.521c1.681,0,2.913,1.104,2.913,2.93
			c0,0.816-0.112,1.456-0.177,1.889l-0.527,3.905h-1.073l0.528-3.905c0.064-0.528,0.16-1.152,0.16-1.825
			c0-1.2-0.752-1.984-1.952-1.984c-1.073,0-2.065,0.528-2.626,1.408c-0.399,0.624-0.576,1.521-0.736,2.625l-0.512,3.682h-1.072
			l1.185-8.499h1.04L842.798,902.512z"/>
		<path fill="#999A9C" d="M852.558,908.979c0,0.528-0.4,0.96-0.944,0.96s-0.96-0.447-0.96-0.96c0-0.528,0.432-0.944,0.96-0.944
			S852.558,908.45,852.558,908.979z"/>
		<path fill="#999A9C" d="M299.36,936.623l3.857,11.492h-1.185l-1.248-3.762h-4.866l-2.161,3.762h-1.281l6.611-11.492H299.36z
			 M298.992,939.023l-2.449,4.226h3.874L298.992,939.023z"/>
		<path fill="#999A9C" d="M306.142,948.115h-1.136l1.568-11.781h1.104l-0.592,4.546c0.977-0.992,2.097-1.488,3.377-1.488
			c2.305,0,3.97,1.617,3.97,3.985c0,2.817-2.305,4.946-4.85,4.946c-1.489,0-2.513-0.608-3.25-1.824L306.142,948.115z
			 M306.542,944.338c0,1.824,1.28,2.977,3.009,2.977c2.033,0,3.793-1.632,3.793-3.905c0-1.856-1.249-3.009-2.993-3.009
			C308.127,940.4,306.542,942.113,306.542,944.338z"/>
		<path fill="#999A9C" d="M328.128,946.595c-0.832,1.04-2.193,1.744-3.777,1.744c-2.561,0-4.001-1.84-4.001-4.033
			c0-2.593,2.129-4.93,4.946-4.93c2.273,0,3.777,1.744,3.777,3.938c0,0.224-0.032,0.544-0.064,0.769h-7.571v0.224
			c0,1.761,1.152,3.025,2.945,3.025c1.184,0,2.257-0.496,2.929-1.393L328.128,946.595z M328.016,943.121
			c-0.064-1.633-1.232-2.673-2.785-2.673c-1.633,0-3.057,0.944-3.618,2.673H328.016z"/>
		<path fill="#999A9C" d="M331.565,939.616h1.04l-1.136,8.499h-1.073L331.565,939.616z M333.31,936.991c0,0.496-0.4,0.88-0.88,0.88
			c-0.48,0-0.88-0.4-0.88-0.88c0-0.48,0.384-0.881,0.88-0.881C332.91,936.11,333.31,936.511,333.31,936.991z"/>
		<path fill="#999A9C" d="M335.869,940.912c0.865-1.008,1.857-1.521,3.009-1.521c1.681,0,2.913,1.104,2.913,2.93
			c0,0.816-0.112,1.456-0.176,1.889l-0.528,3.905h-1.072l0.528-3.905c0.064-0.528,0.16-1.152,0.16-1.825
			c0-1.2-0.752-1.984-1.953-1.984c-1.072,0-2.065,0.528-2.625,1.408c-0.4,0.624-0.576,1.521-0.736,2.625l-0.512,3.682h-1.072
			l1.184-8.499h1.041L335.869,940.912z"/>
		<path fill="#999A9C" d="M351.487,946.595c-0.832,1.04-2.193,1.744-3.777,1.744c-2.561,0-4.001-1.84-4.001-4.033
			c0-2.593,2.129-4.93,4.946-4.93c2.273,0,3.777,1.744,3.777,3.938c0,0.224-0.032,0.544-0.064,0.769h-7.571v0.224
			c0,1.761,1.152,3.025,2.945,3.025c1.184,0,2.257-0.496,2.929-1.393L351.487,946.595z M351.375,943.121
			c-0.064-1.633-1.232-2.673-2.785-2.673c-1.633,0-3.057,0.944-3.618,2.673H351.375z"/>
		<path fill="#999A9C" d="M355.629,940.672c0.592-0.816,1.44-1.28,2.321-1.28c0.448,0,0.752,0.128,0.977,0.225l-0.528,0.992
			c-0.16-0.064-0.4-0.145-0.672-0.145c-0.56,0-1.136,0.288-1.568,0.801c-0.641,0.769-0.865,1.841-1.057,3.249l-0.496,3.602h-1.072
			l1.152-8.499h1.088L355.629,940.672z"/>
		<path fill="#999A9C" d="M364.844,936.623h1.153l-1.377,10.388h4.962l-0.128,1.104h-6.13L364.844,936.623z"/>
		<path fill="#999A9C" d="M379.536,943.457c0,2.674-1.969,4.866-4.882,4.866c-2.353,0-3.921-1.681-3.921-3.97
			c0-2.785,2.145-4.962,4.882-4.962C377.823,939.392,379.536,941.04,379.536,943.457z M371.82,944.29
			c0,1.761,1.185,3.024,2.978,3.024c2.193,0,3.649-1.76,3.649-3.873c0-1.825-1.232-3.041-2.865-3.041
			C373.485,940.4,371.82,942.033,371.82,944.29z"/>
		<path fill="#999A9C" d="M389.487,939.616h1.072l-0.976,7.187c-0.192,1.425-0.368,2.545-1.345,3.474
			c-0.752,0.72-1.969,1.168-3.297,1.168c-1.889,0-3.265-0.769-3.985-2.289l0.976-0.336c0.576,1.057,1.633,1.617,2.993,1.617
			c1.777,0,3.089-0.977,3.297-2.098c0.096-0.479,0.192-0.976,0.256-1.393l0.048-0.336c-0.928,1.009-2.049,1.505-3.377,1.505
			c-2.433,0-3.905-1.681-3.905-3.874c0-2.721,2.401-4.85,4.786-4.85c1.409,0,2.449,0.624,3.25,1.841L389.487,939.616z
			 M382.333,944.29c0,1.712,1.168,2.816,2.929,2.816c2.145,0,3.777-1.584,3.777-3.761c0-1.841-1.329-2.945-2.801-2.945
			C384.077,940.4,382.333,942.033,382.333,944.29z"/>
		<path fill="#999A9C" d="M400.784,943.457c0,2.674-1.969,4.866-4.882,4.866c-2.353,0-3.921-1.681-3.921-3.97
			c0-2.785,2.145-4.962,4.882-4.962C399.071,939.392,400.784,941.04,400.784,943.457z M393.068,944.29
			c0,1.761,1.185,3.024,2.978,3.024c2.193,0,3.649-1.76,3.649-3.873c0-1.825-1.232-3.041-2.865-3.041
			C394.733,940.4,393.068,942.033,393.068,944.29z"/>
		<path fill="#999A9C" d="M403.628,948.115h-1.136l1.568-11.781h1.104l-0.592,4.546c0.977-0.992,2.097-1.488,3.377-1.488
			c2.305,0,3.97,1.617,3.97,3.985c0,2.817-2.305,4.946-4.85,4.946c-1.489,0-2.513-0.608-3.25-1.824L403.628,948.115z
			 M404.029,944.338c0,1.824,1.28,2.977,3.009,2.977c2.033,0,3.793-1.632,3.793-3.905c0-1.856-1.249-3.009-2.993-3.009
			C405.613,940.4,404.029,942.113,404.029,944.338z"/>
		<path fill="#999A9C" d="M414.924,940.672c0.592-0.816,1.44-1.28,2.321-1.28c0.448,0,0.752,0.128,0.977,0.225l-0.528,0.992
			c-0.16-0.064-0.4-0.145-0.672-0.145c-0.56,0-1.136,0.288-1.568,0.801c-0.641,0.769-0.865,1.841-1.057,3.249l-0.496,3.602h-1.072
			l1.152-8.499h1.088L414.924,940.672z"/>
		<path fill="#999A9C" d="M425.936,946.595c-0.832,1.04-2.193,1.744-3.777,1.744c-2.561,0-4.001-1.84-4.001-4.033
			c0-2.593,2.129-4.93,4.946-4.93c2.273,0,3.777,1.744,3.777,3.938c0,0.224-0.032,0.544-0.064,0.769h-7.571v0.224
			c0,1.761,1.152,3.025,2.945,3.025c1.184,0,2.257-0.496,2.929-1.393L425.936,946.595z M425.824,943.121
			c-0.064-1.633-1.232-2.673-2.785-2.673c-1.633,0-3.057,0.944-3.618,2.673H425.824z"/>
		<path fill="#999A9C" d="M429.373,939.616h1.041l-1.136,8.499h-1.073L429.373,939.616z M431.118,936.991
			c0,0.496-0.4,0.88-0.88,0.88c-0.48,0-0.88-0.4-0.88-0.88c0-0.48,0.384-0.881,0.88-0.881
			C430.718,936.11,431.118,936.511,431.118,936.991z"/>
		<path fill="#999A9C" d="M434.126,936.431h1.073l-0.417,3.186h1.681l-0.112,0.96h-1.697l-1.024,7.539h-1.104l1.041-7.539h-1.473
			l0.128-0.96h1.457L434.126,936.431z"/>
		<path fill="#999A9C" d="M444.96,946.595c-0.832,1.04-2.193,1.744-3.777,1.744c-2.561,0-4.001-1.84-4.001-4.033
			c0-2.593,2.129-4.93,4.946-4.93c2.273,0,3.777,1.744,3.777,3.938c0,0.224-0.032,0.544-0.064,0.769h-7.571v0.224
			c0,1.761,1.152,3.025,2.945,3.025c1.184,0,2.257-0.496,2.929-1.393L444.96,946.595z M444.848,943.121
			c-0.064-1.633-1.232-2.673-2.785-2.673c-1.633,0-3.057,0.944-3.618,2.673H444.848z"/>
		<path fill="#999A9C" d="M451.981,939.616h1.121l2.145,6.227l3.585-6.227h1.185l-4.898,8.499h-0.208L451.981,939.616z"/>
		<path fill="#999A9C" d="M469.648,943.457c0,2.674-1.969,4.866-4.882,4.866c-2.353,0-3.922-1.681-3.922-3.97
			c0-2.785,2.145-4.962,4.882-4.962C467.936,939.392,469.648,941.04,469.648,943.457z M461.933,944.29
			c0,1.761,1.185,3.024,2.978,3.024c2.193,0,3.649-1.76,3.649-3.873c0-1.825-1.233-3.041-2.865-3.041
			C463.598,940.4,461.933,942.033,461.933,944.29z"/>
		<path fill="#999A9C" d="M473.277,940.912c0.865-1.008,1.857-1.521,3.009-1.521c1.681,0,2.913,1.104,2.913,2.93
			c0,0.816-0.112,1.456-0.176,1.889l-0.528,3.905h-1.072l0.528-3.905c0.064-0.528,0.16-1.152,0.16-1.825
			c0-1.2-0.752-1.984-1.953-1.984c-1.072,0-2.065,0.528-2.625,1.408c-0.4,0.624-0.576,1.521-0.736,2.625l-0.512,3.682h-1.072
			l1.184-8.499h1.041L473.277,940.912z"/>
		<path fill="#999A9C" d="M488.558,943.905c1.904-2.112,3.025-3.297,3.025-4.609c0-1.041-0.848-1.889-2.049-1.889
			c-1.312,0-2.225,0.976-2.305,2.688h-1.168c0.128-2.417,1.537-3.762,3.601-3.762c1.777,0,3.089,1.281,3.089,2.994
			c0,1.681-1.104,2.833-2.785,4.689l-2.689,2.993h4.93l-0.128,1.104h-7.315L488.558,943.905z"/>
		<path fill="#999A9C" d="M497.421,943.905c1.905-2.112,3.025-3.297,3.025-4.609c0-1.041-0.848-1.889-2.049-1.889
			c-1.312,0-2.225,0.976-2.305,2.688h-1.168c0.128-2.417,1.537-3.762,3.601-3.762c1.777,0,3.089,1.281,3.089,2.994
			c0,1.681-1.104,2.833-2.785,4.689l-2.689,2.993h4.93l-0.128,1.104h-7.315L497.421,943.905z"/>
		<path fill="#999A9C" d="M509.628,940.816c0.705-0.944,1.825-1.425,2.801-1.425c1.168,0,2.145,0.624,2.545,1.905
			c0.769-1.217,1.969-1.905,3.153-1.905c1.489,0,2.721,1.009,2.721,2.753c0,0.448-0.08,0.913-0.128,1.297l-0.625,4.674h-1.072
			l0.576-4.082c0.096-0.72,0.16-1.344,0.16-1.809c0-1.04-0.64-1.761-1.745-1.761c-0.688,0-1.281,0.208-1.809,0.688
			c-0.816,0.736-1.089,1.648-1.265,2.881l-0.576,4.082h-1.088l0.64-4.674c0.048-0.368,0.112-0.801,0.112-1.2
			c0-1.152-0.752-1.841-1.745-1.841c-0.672,0-1.36,0.288-1.873,0.736c-0.736,0.656-1.057,1.633-1.249,2.977l-0.561,4.002h-1.088
			l1.217-8.499h1.056L509.628,940.816z"/>
		<path fill="#999A9C" d="M524.636,940.816c0.705-0.944,1.825-1.425,2.801-1.425c1.168,0,2.145,0.624,2.545,1.905
			c0.769-1.217,1.969-1.905,3.153-1.905c1.489,0,2.721,1.009,2.721,2.753c0,0.448-0.08,0.913-0.128,1.297l-0.625,4.674h-1.072
			l0.576-4.082c0.096-0.72,0.16-1.344,0.16-1.809c0-1.04-0.64-1.761-1.745-1.761c-0.688,0-1.281,0.208-1.809,0.688
			c-0.816,0.736-1.089,1.648-1.265,2.881l-0.576,4.082h-1.088l0.64-4.674c0.048-0.368,0.112-0.801,0.112-1.2
			c0-1.152-0.752-1.841-1.745-1.841c-0.672,0-1.36,0.288-1.873,0.736c-0.736,0.656-1.057,1.633-1.249,2.977l-0.561,4.002h-1.088
			l1.217-8.499h1.056L524.636,940.816z"/>
		<path fill="#999A9C" d="M542.235,939.616h1.088l1.745,6.002l3.201-6.002h0.192l1.937,6.05l3.121-6.05h1.185l-4.402,8.499h-0.224
			l-1.969-6.002l-3.185,6.002h-0.208L542.235,939.616z"/>
		<path fill="#999A9C" d="M556.267,939.616h1.041l-1.136,8.499h-1.073L556.267,939.616z M558.012,936.991
			c0,0.496-0.4,0.88-0.88,0.88c-0.48,0-0.88-0.4-0.88-0.88c0-0.48,0.384-0.881,0.88-0.881
			C557.611,936.11,558.012,936.511,558.012,936.991z"/>
		<path fill="#999A9C" d="M560.171,940.672c0.592-0.816,1.44-1.28,2.321-1.28c0.448,0,0.752,0.128,0.977,0.225l-0.528,0.992
			c-0.16-0.064-0.4-0.145-0.672-0.145c-0.56,0-1.136,0.288-1.568,0.801c-0.641,0.769-0.865,1.841-1.057,3.249l-0.496,3.602h-1.072
			l1.152-8.499h1.088L560.171,940.672z"/>
		<path fill="#999A9C" d="M570.736,946.835c-0.977,0.992-2.097,1.504-3.377,1.504c-2.321,0-3.97-1.648-3.97-4.001
			c0-2.817,2.337-4.946,4.866-4.946c1.489,0,2.497,0.624,3.233,1.841l0.64-4.898h1.121l-1.569,11.781h-1.104L570.736,946.835z
			 M571.28,943.394c0-1.825-1.281-2.993-3.009-2.993c-2.049,0-3.793,1.664-3.793,3.921c0,1.857,1.264,3.01,3.009,3.01
			C569.728,947.331,571.28,945.603,571.28,943.394z"/>
		<path fill="#999A9C" d="M586.127,946.835c-0.977,0.992-2.097,1.504-3.377,1.504c-2.321,0-3.97-1.648-3.97-4.001
			c0-2.817,2.337-4.946,4.865-4.946c1.489,0,2.497,0.624,3.233,1.841l0.641-4.898h1.12l-1.568,11.781h-1.104L586.127,946.835z
			 M586.671,943.394c0-1.825-1.28-2.993-3.009-2.993c-2.049,0-3.794,1.664-3.794,3.921c0,1.857,1.265,3.01,3.01,3.01
			C585.118,947.331,586.671,945.603,586.671,943.394z"/>
		<path fill="#999A9C" d="M598.016,939.616h1.136l-1.136,8.499h-1.104l0.16-1.28c-0.977,0.992-2.098,1.504-3.378,1.504
			c-2.32,0-3.97-1.648-3.97-4.001c0-2.817,2.337-4.946,4.866-4.946c1.488,0,2.497,0.624,3.233,1.841L598.016,939.616z
			 M597.615,943.394c0-1.825-1.28-2.993-3.01-2.993c-2.049,0-3.793,1.664-3.793,3.921c0,1.857,1.265,3.01,3.009,3.01
			C596.062,947.331,597.615,945.603,597.615,943.394z"/>
		<path fill="#999A9C" d="M600.571,946.162c0.641,0.769,1.345,1.152,2.049,1.152c0.769,0,1.569-0.624,1.569-1.488
			c0-0.464-0.24-0.929-0.673-1.232c-1.729-1.232-2.641-1.729-2.641-2.929c0-1.281,1.12-2.273,2.529-2.273
			c1.056,0,1.648,0.496,2.208,1.169l-0.592,0.896c-0.464-0.657-1.009-1.057-1.696-1.057c-0.801,0-1.361,0.656-1.361,1.216
			c0,0.385,0.272,0.801,0.736,1.104c1.537,1.009,2.577,1.633,2.577,3.138c0,1.473-1.168,2.465-2.705,2.465
			c-1.024,0-1.952-0.496-2.657-1.393L600.571,946.162z"/>
		<path fill="#999A9C" d="M612.78,936.623h1.152l-1.377,10.388h4.962l-0.128,1.104h-6.13L612.78,936.623z"/>
		<path fill="#999A9C" d="M627.471,943.457c0,2.674-1.969,4.866-4.882,4.866c-2.353,0-3.921-1.681-3.921-3.97
			c0-2.785,2.145-4.962,4.882-4.962C625.759,939.392,627.471,941.04,627.471,943.457z M619.756,944.29
			c0,1.761,1.185,3.024,2.978,3.024c2.192,0,3.649-1.76,3.649-3.873c0-1.825-1.232-3.041-2.865-3.041
			C621.421,940.4,619.756,942.033,619.756,944.29z"/>
		<path fill="#999A9C" d="M637.423,939.616h1.073l-0.977,7.187c-0.192,1.425-0.368,2.545-1.345,3.474
			c-0.752,0.72-1.969,1.168-3.297,1.168c-1.89,0-3.266-0.769-3.986-2.289l0.977-0.336c0.576,1.057,1.633,1.617,2.993,1.617
			c1.777,0,3.09-0.977,3.298-2.098c0.096-0.479,0.191-0.976,0.256-1.393l0.048-0.336c-0.929,1.009-2.049,1.505-3.377,1.505
			c-2.434,0-3.906-1.681-3.906-3.874c0-2.721,2.401-4.85,4.786-4.85c1.408,0,2.449,0.624,3.249,1.841L637.423,939.616z
			 M630.269,944.29c0,1.712,1.168,2.816,2.929,2.816c2.146,0,3.778-1.584,3.778-3.761c0-1.841-1.329-2.945-2.802-2.945
			C632.013,940.4,630.269,942.033,630.269,944.29z"/>
		<path fill="#999A9C" d="M648.719,943.457c0,2.674-1.969,4.866-4.882,4.866c-2.353,0-3.921-1.681-3.921-3.97
			c0-2.785,2.145-4.962,4.882-4.962C647.007,939.392,648.719,941.04,648.719,943.457z M641.004,944.29
			c0,1.761,1.185,3.024,2.978,3.024c2.192,0,3.649-1.76,3.649-3.873c0-1.825-1.232-3.041-2.865-3.041
			C642.669,940.4,641.004,942.033,641.004,944.29z"/>
		<path fill="#999A9C" d="M655.676,939.616h1.041l-1.137,8.499h-1.072L655.676,939.616z M657.421,936.991
			c0,0.496-0.4,0.88-0.881,0.88c-0.479,0-0.88-0.4-0.88-0.88c0-0.48,0.384-0.881,0.88-0.881
			C657.021,936.11,657.421,936.511,657.421,936.991z"/>
		<path fill="#999A9C" d="M659.98,940.816c0.704-0.944,1.825-1.425,2.802-1.425c1.168,0,2.145,0.624,2.545,1.905
			c0.768-1.217,1.969-1.905,3.153-1.905c1.488,0,2.721,1.009,2.721,2.753c0,0.448-0.08,0.913-0.128,1.297l-0.624,4.674h-1.073
			l0.577-4.082c0.096-0.72,0.159-1.344,0.159-1.809c0-1.04-0.64-1.761-1.744-1.761c-0.688,0-1.28,0.208-1.809,0.688
			c-0.816,0.736-1.089,1.648-1.265,2.881l-0.576,4.082h-1.089l0.641-4.674c0.048-0.368,0.112-0.801,0.112-1.2
			c0-1.152-0.753-1.841-1.745-1.841c-0.672,0-1.36,0.288-1.873,0.736c-0.736,0.656-1.056,1.633-1.248,2.977l-0.561,4.002h-1.088
			l1.216-8.499h1.057L659.98,940.816z"/>
		<path fill="#999A9C" d="M674.988,940.816c0.704-0.944,1.825-1.425,2.802-1.425c1.168,0,2.145,0.624,2.545,1.905
			c0.768-1.217,1.969-1.905,3.153-1.905c1.488,0,2.721,1.009,2.721,2.753c0,0.448-0.08,0.913-0.128,1.297l-0.624,4.674h-1.073
			l0.577-4.082c0.096-0.72,0.159-1.344,0.159-1.809c0-1.04-0.64-1.761-1.744-1.761c-0.688,0-1.28,0.208-1.809,0.688
			c-0.816,0.736-1.089,1.648-1.265,2.881l-0.576,4.082h-1.089l0.641-4.674c0.048-0.368,0.112-0.801,0.112-1.2
			c0-1.152-0.753-1.841-1.745-1.841c-0.672,0-1.36,0.288-1.873,0.736c-0.736,0.656-1.056,1.633-1.248,2.977l-0.561,4.002h-1.088
			l1.216-8.499h1.057L674.988,940.816z"/>
		<path fill="#999A9C" d="M695.854,946.595c-0.832,1.04-2.192,1.744-3.777,1.744c-2.562,0-4.002-1.84-4.002-4.033
			c0-2.593,2.129-4.93,4.946-4.93c2.272,0,3.777,1.744,3.777,3.938c0,0.224-0.032,0.544-0.063,0.769h-7.571v0.224
			c0,1.761,1.152,3.025,2.945,3.025c1.185,0,2.257-0.496,2.929-1.393L695.854,946.595z M695.742,943.121
			c-0.063-1.633-1.232-2.673-2.785-2.673c-1.632,0-3.057,0.944-3.617,2.673H695.742z"/>
		<path fill="#999A9C" d="M699.995,940.672c0.593-0.816,1.441-1.28,2.321-1.28c0.448,0,0.752,0.128,0.977,0.225l-0.528,0.992
			c-0.16-0.064-0.4-0.145-0.672-0.145c-0.561,0-1.137,0.288-1.569,0.801c-0.64,0.769-0.864,1.841-1.056,3.249l-0.497,3.602h-1.072
			l1.152-8.499h1.089L699.995,940.672z"/>
		<path fill="#999A9C" d="M709.644,940.816c0.704-0.944,1.825-1.425,2.802-1.425c1.168,0,2.145,0.624,2.545,1.905
			c0.768-1.217,1.969-1.905,3.153-1.905c1.488,0,2.721,1.009,2.721,2.753c0,0.448-0.08,0.913-0.128,1.297l-0.624,4.674h-1.072
			l0.576-4.082c0.096-0.72,0.159-1.344,0.159-1.809c0-1.04-0.64-1.761-1.744-1.761c-0.688,0-1.28,0.208-1.809,0.688
			c-0.816,0.736-1.089,1.648-1.265,2.881l-0.576,4.082h-1.089l0.641-4.674c0.048-0.368,0.112-0.801,0.112-1.2
			c0-1.152-0.753-1.841-1.745-1.841c-0.672,0-1.36,0.288-1.873,0.736c-0.736,0.656-1.056,1.633-1.248,2.977l-0.561,4.002h-1.088
			l1.216-8.499h1.057L709.644,940.816z"/>
		<path fill="#999A9C" d="M723.547,939.616h1.041l-1.137,8.499h-1.072L723.547,939.616z M725.292,936.991
			c0,0.496-0.4,0.88-0.881,0.88c-0.479,0-0.88-0.4-0.88-0.88c0-0.48,0.384-0.881,0.88-0.881
			C724.892,936.11,725.292,936.511,725.292,936.991z"/>
		<path fill="#999A9C" d="M728.3,936.431h1.072l-0.416,3.186h1.681l-0.112,0.96h-1.696l-1.024,7.539h-1.104l1.04-7.539h-1.472
			l0.128-0.96h1.456L728.3,936.431z"/>
		<path fill="#999A9C" d="M737.131,936.623h1.137l-0.864,6.578c-0.064,0.496-0.16,1.12-0.16,1.825c0,1.521,0.849,2.288,2.353,2.288
			c0.913,0,1.729-0.304,2.257-0.848c0.816-0.816,1.073-2.226,1.329-4.29l0.704-5.554h1.137l-0.769,5.794
			c-0.112,0.8-0.176,1.809-0.513,2.897c-0.64,2.097-1.92,3.073-4.129,3.073c-2.241,0-3.538-1.201-3.538-3.17
			c0-0.784,0.145-1.536,0.225-2.192L737.131,936.623z"/>
		<path fill="#999A9C" d="M748.187,940.912c0.864-1.008,1.857-1.521,3.01-1.521c1.681,0,2.913,1.104,2.913,2.93
			c0,0.816-0.112,1.456-0.177,1.889l-0.527,3.905h-1.073l0.528-3.905c0.064-0.528,0.16-1.152,0.16-1.825
			c0-1.2-0.752-1.984-1.952-1.984c-1.073,0-2.065,0.528-2.626,1.408c-0.399,0.624-0.576,1.521-0.736,2.625l-0.512,3.682h-1.072
			l1.185-8.499h1.04L748.187,940.912z"/>
		<path fill="#999A9C" d="M758.395,936.431h1.072l-0.416,3.186h1.681l-0.112,0.96h-1.696l-1.024,7.539h-1.104l1.04-7.539h-1.472
			l0.128-0.96h1.456L758.395,936.431z"/>
		<path fill="#999A9C" d="M769.229,946.595c-0.832,1.04-2.192,1.744-3.777,1.744c-2.562,0-4.002-1.84-4.002-4.033
			c0-2.593,2.129-4.93,4.946-4.93c2.273,0,3.777,1.744,3.777,3.938c0,0.224-0.032,0.544-0.063,0.769h-7.571v0.224
			c0,1.761,1.152,3.025,2.945,3.025c1.185,0,2.257-0.496,2.929-1.393L769.229,946.595z M769.116,943.121
			c-0.063-1.633-1.232-2.673-2.785-2.673c-1.632,0-3.057,0.944-3.617,2.673H769.116z"/>
		<path fill="#999A9C" d="M773.37,940.672c0.593-0.816,1.441-1.28,2.321-1.28c0.448,0,0.752,0.128,0.977,0.225l-0.528,0.992
			c-0.16-0.064-0.4-0.145-0.672-0.145c-0.561,0-1.137,0.288-1.569,0.801c-0.64,0.769-0.864,1.841-1.056,3.249l-0.497,3.602h-1.072
			l1.152-8.499h1.089L773.37,940.672z"/>
		<path fill="#999A9C" d="M776.923,939.616h5.842l-5.074,7.539h4.61l-0.128,0.96h-6.419l5.106-7.539h-4.066L776.923,939.616z"/>
		<path fill="#999A9C" d="M791.245,946.595c-0.832,1.04-2.192,1.744-3.777,1.744c-2.562,0-4.002-1.84-4.002-4.033
			c0-2.593,2.129-4.93,4.946-4.93c2.272,0,3.777,1.744,3.777,3.938c0,0.224-0.032,0.544-0.063,0.769h-7.571v0.224
			c0,1.761,1.152,3.025,2.945,3.025c1.185,0,2.257-0.496,2.929-1.393L791.245,946.595z M791.133,943.121
			c-0.063-1.633-1.232-2.673-2.785-2.673c-1.632,0-3.057,0.944-3.617,2.673H791.133z"/>
		<path fill="#999A9C" d="M794.682,939.616h1.041l-1.137,8.499h-1.072L794.682,939.616z M796.427,936.991
			c0,0.496-0.4,0.88-0.881,0.88c-0.479,0-0.88-0.4-0.88-0.88c0-0.48,0.384-0.881,0.88-0.881
			C796.026,936.11,796.427,936.511,796.427,936.991z"/>
		<path fill="#999A9C" d="M798.362,936.334h1.072l-1.633,11.781h-1.088L798.362,936.334z"/>
		<path fill="#999A9C" d="M808.045,946.595c-0.832,1.04-2.192,1.744-3.777,1.744c-2.562,0-4.002-1.84-4.002-4.033
			c0-2.593,2.129-4.93,4.946-4.93c2.273,0,3.777,1.744,3.777,3.938c0,0.224-0.032,0.544-0.063,0.769h-7.571v0.224
			c0,1.761,1.152,3.025,2.945,3.025c1.185,0,2.257-0.496,2.929-1.393L808.045,946.595z M807.933,943.121
			c-0.063-1.633-1.232-2.673-2.785-2.673c-1.632,0-3.057,0.944-3.617,2.673H807.933z"/>
		<path fill="#999A9C" d="M822.877,946.595c-0.832,1.04-2.192,1.744-3.777,1.744c-2.562,0-4.002-1.84-4.002-4.033
			c0-2.593,2.129-4.93,4.946-4.93c2.273,0,3.777,1.744,3.777,3.938c0,0.224-0.032,0.544-0.063,0.769h-7.571v0.224
			c0,1.761,1.152,3.025,2.945,3.025c1.185,0,2.257-0.496,2.929-1.393L822.877,946.595z M822.765,943.121
			c-0.063-1.633-1.232-2.673-2.785-2.673c-1.632,0-3.057,0.944-3.617,2.673H822.765z"/>
		<path fill="#999A9C" d="M826.314,939.616h1.041l-1.137,8.499h-1.072L826.314,939.616z M828.06,936.991
			c0,0.496-0.4,0.88-0.881,0.88c-0.479,0-0.88-0.4-0.88-0.88c0-0.48,0.384-0.881,0.88-0.881
			C827.659,936.11,828.06,936.511,828.06,936.991z"/>
		<path fill="#999A9C" d="M830.619,940.912c0.864-1.008,1.857-1.521,3.01-1.521c1.681,0,2.913,1.104,2.913,2.93
			c0,0.816-0.112,1.456-0.177,1.889l-0.527,3.905h-1.073l0.528-3.905c0.064-0.528,0.16-1.152,0.16-1.825
			c0-1.2-0.752-1.984-1.952-1.984c-1.073,0-2.065,0.528-2.626,1.408c-0.399,0.624-0.576,1.521-0.736,2.625l-0.512,3.682h-1.072
			l1.185-8.499h1.04L830.619,940.912z"/>
		<path fill="#999A9C" d="M846.702,939.616h1.072l-0.977,7.187c-0.192,1.425-0.368,2.545-1.345,3.474
			c-0.752,0.72-1.969,1.168-3.297,1.168c-1.89,0-3.266-0.769-3.986-2.289l0.977-0.336c0.576,1.057,1.633,1.617,2.993,1.617
			c1.777,0,3.09-0.977,3.298-2.098c0.096-0.479,0.191-0.976,0.256-1.393l0.048-0.336c-0.929,1.009-2.049,1.505-3.377,1.505
			c-2.434,0-3.906-1.681-3.906-3.874c0-2.721,2.401-4.85,4.786-4.85c1.409,0,2.449,0.624,3.249,1.841L846.702,939.616z
			 M839.547,944.29c0,1.712,1.168,2.816,2.929,2.816c2.146,0,3.778-1.584,3.778-3.761c0-1.841-1.329-2.945-2.802-2.945
			C841.291,940.4,839.547,942.033,839.547,944.29z"/>
		<path fill="#999A9C" d="M857.005,946.595c-0.832,1.04-2.192,1.744-3.777,1.744c-2.562,0-4.002-1.84-4.002-4.033
			c0-2.593,2.129-4.93,4.946-4.93c2.272,0,3.777,1.744,3.777,3.938c0,0.224-0.032,0.544-0.063,0.769h-7.571v0.224
			c0,1.761,1.152,3.025,2.945,3.025c1.185,0,2.257-0.496,2.929-1.393L857.005,946.595z M856.893,943.121
			c-0.063-1.633-1.232-2.673-2.785-2.673c-1.632,0-3.057,0.944-3.617,2.673H856.893z"/>
		<path fill="#999A9C" d="M859.545,946.162c0.641,0.769,1.345,1.152,2.049,1.152c0.769,0,1.569-0.624,1.569-1.488
			c0-0.464-0.24-0.929-0.673-1.232c-1.729-1.232-2.641-1.729-2.641-2.929c0-1.281,1.12-2.273,2.529-2.273
			c1.056,0,1.648,0.496,2.208,1.169l-0.592,0.896c-0.464-0.657-1.009-1.057-1.696-1.057c-0.801,0-1.361,0.656-1.361,1.216
			c0,0.385,0.272,0.801,0.736,1.104c1.537,1.009,2.577,1.633,2.577,3.138c0,1.473-1.168,2.465-2.705,2.465
			c-1.024,0-1.952-0.496-2.657-1.393L859.545,946.162z"/>
		<path fill="#999A9C" d="M873.612,946.595c-0.832,1.04-2.192,1.744-3.777,1.744c-2.562,0-4.002-1.84-4.002-4.033
			c0-2.593,2.129-4.93,4.946-4.93c2.272,0,3.777,1.744,3.777,3.938c0,0.224-0.032,0.544-0.063,0.769h-7.571v0.224
			c0,1.761,1.152,3.025,2.945,3.025c1.185,0,2.257-0.496,2.929-1.393L873.612,946.595z M873.5,943.121
			c-0.063-1.633-1.232-2.673-2.785-2.673c-1.632,0-3.057,0.944-3.617,2.673H873.5z"/>
		<path fill="#999A9C" d="M878.602,936.431h1.072l-0.416,3.186h1.681l-0.112,0.96h-1.696l-1.024,7.539h-1.104l1.04-7.539h-1.472
			l0.128-0.96h1.456L878.602,936.431z"/>
		<path fill="#999A9C" d="M881.913,939.616h5.842l-5.074,7.539h4.61l-0.128,0.96h-6.419l5.106-7.539h-4.066L881.913,939.616z"/>
		<path fill="#999A9C" d="M890.825,936.431h1.072l-0.416,3.186h1.681l-0.112,0.96h-1.696l-1.024,7.539h-1.104l1.04-7.539h-1.472
			l0.128-0.96h1.456L890.825,936.431z"/>
		<path fill="#999A9C" d="M895.801,947.379c0,0.528-0.4,0.96-0.944,0.96s-0.96-0.447-0.96-0.96c0-0.528,0.432-0.944,0.96-0.944
			S895.801,946.851,895.801,947.379z"/>
		<path fill="#999A9C" d="M447.253,975.023h2.737c1.232,0,2.305,0.128,3.329,0.624c1.761,0.848,2.801,2.673,2.801,4.802
			c0,1.921-0.864,3.794-2.145,4.834c-1.216,1.009-2.625,1.232-4.354,1.232h-3.89L447.253,975.023z M448.246,976.127l-1.233,9.284
			h1.297c1.792,0,3.153-0.016,4.258-0.576c1.408-0.721,2.385-2.385,2.385-4.354c0-1.681-0.769-3.073-2.145-3.794
			c-1.008-0.528-2.017-0.561-3.153-0.561H448.246z"/>
		<path fill="#999A9C" d="M466.023,978.017h1.137l-1.137,8.499h-1.104l0.16-1.28c-0.976,0.992-2.097,1.504-3.377,1.504
			c-2.321,0-3.969-1.648-3.969-4.001c0-2.817,2.337-4.946,4.866-4.946c1.489,0,2.497,0.624,3.233,1.841L466.023,978.017z
			 M465.624,981.794c0-1.825-1.281-2.993-3.009-2.993c-2.049,0-3.793,1.664-3.793,3.921c0,1.857,1.264,3.01,3.009,3.01
			C464.071,985.731,465.624,984.003,465.624,981.794z"/>
		<path fill="#999A9C" d="M468.581,984.562c0.64,0.769,1.344,1.152,2.049,1.152c0.768,0,1.568-0.624,1.568-1.488
			c0-0.464-0.24-0.929-0.672-1.232c-1.729-1.232-2.641-1.729-2.641-2.929c0-1.281,1.12-2.273,2.529-2.273
			c1.057,0,1.649,0.496,2.209,1.169l-0.592,0.896c-0.464-0.657-1.008-1.057-1.697-1.057c-0.8,0-1.36,0.656-1.36,1.216
			c0,0.385,0.272,0.801,0.736,1.104c1.537,1.009,2.577,1.633,2.577,3.138c0,1.473-1.168,2.465-2.705,2.465
			c-1.024,0-1.953-0.496-2.657-1.393L468.581,984.562z"/>
		<path fill="#999A9C" d="M480.789,975.023h1.153l-1.377,10.388h4.962l-0.128,1.104h-6.13L480.789,975.023z"/>
		<path fill="#999A9C" d="M495.48,981.857c0,2.674-1.969,4.866-4.882,4.866c-2.353,0-3.921-1.681-3.921-3.97
			c0-2.785,2.145-4.962,4.882-4.962C493.767,977.792,495.48,979.44,495.48,981.857z M487.765,982.69
			c0,1.761,1.185,3.024,2.978,3.024c2.193,0,3.649-1.76,3.649-3.873c0-1.825-1.232-3.041-2.865-3.041
			C489.429,978.801,487.765,980.434,487.765,982.69z"/>
		<path fill="#999A9C" d="M505.432,978.017h1.072l-0.976,7.187c-0.192,1.425-0.368,2.545-1.345,3.474
			c-0.752,0.72-1.969,1.168-3.297,1.168c-1.889,0-3.265-0.769-3.985-2.289l0.976-0.336c0.576,1.057,1.633,1.617,2.993,1.617
			c1.777,0,3.089-0.977,3.297-2.098c0.096-0.479,0.192-0.976,0.256-1.393l0.048-0.336c-0.928,1.009-2.049,1.505-3.377,1.505
			c-2.433,0-3.905-1.681-3.905-3.874c0-2.721,2.401-4.85,4.786-4.85c1.409,0,2.449,0.624,3.25,1.841L505.432,978.017z
			 M498.277,982.69c0,1.712,1.168,2.816,2.929,2.816c2.145,0,3.777-1.584,3.777-3.761c0-1.841-1.329-2.945-2.801-2.945
			C500.021,978.801,498.277,980.434,498.277,982.69z"/>
		<path fill="#999A9C" d="M516.728,981.857c0,2.674-1.969,4.866-4.882,4.866c-2.353,0-3.921-1.681-3.921-3.97
			c0-2.785,2.145-4.962,4.882-4.962C515.015,977.792,516.728,979.44,516.728,981.857z M509.013,982.69
			c0,1.761,1.185,3.024,2.978,3.024c2.193,0,3.649-1.76,3.649-3.873c0-1.825-1.232-3.041-2.865-3.041
			C510.677,978.801,509.013,980.434,509.013,982.69z"/>
		<path fill="#999A9C" d="M522.949,978.017h1.088l1.745,6.002l3.201-6.002h0.192l1.937,6.05l3.121-6.05h1.185l-4.402,8.499h-0.224
			l-1.969-6.002l-3.185,6.002h-0.208L522.949,978.017z"/>
		<path fill="#999A9C" d="M536.98,978.017h1.041l-1.136,8.499h-1.073L536.98,978.017z M538.726,975.392c0,0.496-0.4,0.88-0.88,0.88
			c-0.48,0-0.88-0.4-0.88-0.88c0-0.48,0.384-0.881,0.88-0.881C538.325,974.511,538.726,974.911,538.726,975.392z"/>
		<path fill="#999A9C" d="M540.885,979.072c0.592-0.816,1.44-1.28,2.321-1.28c0.448,0,0.752,0.128,0.977,0.225l-0.528,0.992
			c-0.16-0.064-0.4-0.145-0.672-0.145c-0.56,0-1.136,0.288-1.568,0.801c-0.641,0.769-0.865,1.841-1.057,3.249l-0.496,3.602h-1.072
			l1.152-8.499h1.088L540.885,979.072z"/>
		<path fill="#999A9C" d="M551.45,985.235c-0.977,0.992-2.097,1.504-3.377,1.504c-2.321,0-3.97-1.648-3.97-4.001
			c0-2.817,2.337-4.946,4.866-4.946c1.489,0,2.497,0.624,3.233,1.841l0.64-4.898h1.121l-1.569,11.781h-1.104L551.45,985.235z
			 M551.994,981.794c0-1.825-1.281-2.993-3.009-2.993c-2.049,0-3.793,1.664-3.793,3.921c0,1.857,1.264,3.01,3.009,3.01
			C550.441,985.731,551.994,984.003,551.994,981.794z"/>
		<path fill="#999A9C" d="M560.295,978.017h1.041l-1.136,8.499h-1.073L560.295,978.017z M562.04,975.392c0,0.496-0.4,0.88-0.88,0.88
			c-0.48,0-0.88-0.4-0.88-0.88c0-0.48,0.384-0.881,0.88-0.881C561.64,974.511,562.04,974.911,562.04,975.392z"/>
		<path fill="#999A9C" d="M564.6,979.217c0.705-0.944,1.825-1.425,2.801-1.425c1.168,0,2.145,0.624,2.545,1.905
			c0.769-1.217,1.969-1.905,3.154-1.905c1.488,0,2.721,1.009,2.721,2.753c0,0.448-0.08,0.913-0.128,1.297l-0.624,4.674h-1.073
			l0.577-4.082c0.096-0.72,0.159-1.344,0.159-1.809c0-1.04-0.64-1.761-1.744-1.761c-0.688,0-1.281,0.208-1.809,0.688
			c-0.816,0.736-1.089,1.648-1.265,2.881l-0.576,4.082h-1.088l0.64-4.674c0.048-0.368,0.112-0.801,0.112-1.2
			c0-1.152-0.752-1.841-1.745-1.841c-0.672,0-1.36,0.288-1.873,0.736c-0.736,0.656-1.057,1.633-1.249,2.977l-0.561,4.002h-1.088
			l1.217-8.499h1.056L564.6,979.217z"/>
		<path fill="#999A9C" d="M579.607,979.217c0.704-0.944,1.825-1.425,2.802-1.425c1.168,0,2.145,0.624,2.545,1.905
			c0.768-1.217,1.969-1.905,3.153-1.905c1.488,0,2.721,1.009,2.721,2.753c0,0.448-0.08,0.913-0.128,1.297l-0.624,4.674h-1.073
			l0.577-4.082c0.096-0.72,0.159-1.344,0.159-1.809c0-1.04-0.64-1.761-1.744-1.761c-0.688,0-1.28,0.208-1.809,0.688
			c-0.816,0.736-1.089,1.648-1.265,2.881l-0.576,4.082h-1.089l0.641-4.674c0.048-0.368,0.112-0.801,0.112-1.2
			c0-1.152-0.753-1.841-1.745-1.841c-0.672,0-1.36,0.288-1.873,0.736c-0.736,0.656-1.056,1.633-1.248,2.977l-0.561,4.002h-1.088
			l1.216-8.499h1.057L579.607,979.217z"/>
		<path fill="#999A9C" d="M600.474,984.995c-0.832,1.04-2.192,1.744-3.777,1.744c-2.562,0-4.002-1.84-4.002-4.033
			c0-2.593,2.129-4.93,4.946-4.93c2.272,0,3.777,1.744,3.777,3.938c0,0.224-0.032,0.544-0.063,0.769h-7.571v0.224
			c0,1.761,1.152,3.025,2.945,3.025c1.185,0,2.257-0.496,2.929-1.393L600.474,984.995z M600.361,981.521
			c-0.063-1.633-1.232-2.673-2.785-2.673c-1.632,0-3.057,0.944-3.617,2.673H600.361z"/>
		<path fill="#999A9C" d="M604.614,979.072c0.593-0.816,1.441-1.28,2.321-1.28c0.448,0,0.752,0.128,0.977,0.225l-0.528,0.992
			c-0.16-0.064-0.4-0.145-0.672-0.145c-0.561,0-1.137,0.288-1.569,0.801c-0.64,0.769-0.864,1.841-1.056,3.249l-0.497,3.602h-1.072
			l1.152-8.499h1.089L604.614,979.072z"/>
		<path fill="#999A9C" d="M620.634,978.017h1.136l-1.136,8.499h-1.104l0.16-1.28c-0.977,0.992-2.098,1.504-3.378,1.504
			c-2.32,0-3.97-1.648-3.97-4.001c0-2.817,2.337-4.946,4.866-4.946c1.488,0,2.497,0.624,3.233,1.841L620.634,978.017z
			 M620.233,981.794c0-1.825-1.28-2.993-3.01-2.993c-2.049,0-3.793,1.664-3.793,3.921c0,1.857,1.265,3.01,3.009,3.01
			C618.681,985.731,620.233,984.003,620.233,981.794z"/>
		<path fill="#999A9C" d="M624.278,978.017h1.088l-0.479,3.553c-0.097,0.721-0.208,1.377-0.208,1.938
			c0,1.344,1.008,2.208,2.369,2.208c0.848,0,1.648-0.384,2.112-0.992c0.528-0.688,0.593-1.536,0.721-2.465l0.608-4.241h1.056
			l-0.432,3.217c-0.257,1.889-0.496,3.249-1.072,4.065c-0.641,0.881-1.761,1.425-3.042,1.425c-1.984,0-3.361-1.328-3.361-3.169
			c0-0.353,0.064-1.201,0.208-2.306L624.278,978.017z"/>
		<path fill="#999A9C" d="M634.454,977.264c0.176-1.393,0.512-2.769,1.969-2.769c0.561,0,0.96,0.256,1.328,0.528l-0.144,1.024
			c-0.368-0.337-0.736-0.545-1.057-0.545c-0.672,0-0.849,0.721-0.977,1.601l-0.128,0.913h1.745l-0.112,0.96h-1.745l-1.056,7.539
			h-1.121l1.072-7.539h-1.072l0.128-0.96h1.073L634.454,977.264z"/>
		<path fill="#999A9C" d="M642.533,978.017h1.089l1.744,6.002l3.202-6.002h0.191l1.937,6.05l3.122-6.05h1.185l-4.402,8.499h-0.224
			l-1.969-6.002l-3.186,6.002h-0.208L642.533,978.017z"/>
		<path fill="#999A9C" d="M663.528,984.995c-0.832,1.04-2.192,1.744-3.777,1.744c-2.562,0-4.002-1.84-4.002-4.033
			c0-2.593,2.129-4.93,4.946-4.93c2.272,0,3.777,1.744,3.777,3.938c0,0.224-0.032,0.544-0.063,0.769h-7.571v0.224
			c0,1.761,1.152,3.025,2.945,3.025c1.185,0,2.257-0.496,2.929-1.393L663.528,984.995z M663.416,981.521
			c-0.063-1.633-1.232-2.673-2.785-2.673c-1.632,0-3.057,0.944-3.617,2.673H663.416z"/>
		<path fill="#999A9C" d="M666.965,978.017h1.041l-1.137,8.499h-1.072L666.965,978.017z M668.71,975.392
			c0,0.496-0.4,0.88-0.881,0.88c-0.479,0-0.88-0.4-0.88-0.88c0-0.48,0.384-0.881,0.88-0.881
			C668.31,974.511,668.71,974.911,668.71,975.392z"/>
		<path fill="#999A9C" d="M669.269,984.562c0.641,0.769,1.345,1.152,2.049,1.152c0.769,0,1.569-0.624,1.569-1.488
			c0-0.464-0.24-0.929-0.673-1.232c-1.729-1.232-2.641-1.729-2.641-2.929c0-1.281,1.12-2.273,2.529-2.273
			c1.056,0,1.648,0.496,2.208,1.169l-0.592,0.896c-0.464-0.657-1.009-1.057-1.696-1.057c-0.801,0-1.361,0.656-1.361,1.216
			c0,0.385,0.272,0.801,0.736,1.104c1.537,1.009,2.577,1.633,2.577,3.138c0,1.473-1.168,2.465-2.705,2.465
			c-1.024,0-1.952-0.496-2.657-1.393L669.269,984.562z"/>
		<path fill="#999A9C" d="M675.477,984.562c0.641,0.769,1.345,1.152,2.049,1.152c0.769,0,1.569-0.624,1.569-1.488
			c0-0.464-0.24-0.929-0.673-1.232c-1.729-1.232-2.641-1.729-2.641-2.929c0-1.281,1.12-2.273,2.529-2.273
			c1.056,0,1.648,0.496,2.208,1.169l-0.592,0.896c-0.464-0.657-1.009-1.057-1.696-1.057c-0.801,0-1.361,0.656-1.361,1.216
			c0,0.385,0.272,0.801,0.736,1.104c1.537,1.009,2.577,1.633,2.577,3.138c0,1.473-1.168,2.465-2.705,2.465
			c-1.024,0-1.952-0.496-2.657-1.393L675.477,984.562z"/>
		<path fill="#999A9C" d="M694.44,978.017h1.072l-0.977,7.187c-0.192,1.425-0.368,2.545-1.345,3.474
			c-0.752,0.72-1.969,1.168-3.297,1.168c-1.89,0-3.266-0.769-3.986-2.289l0.977-0.336c0.576,1.057,1.633,1.617,2.993,1.617
			c1.777,0,3.09-0.977,3.298-2.098c0.096-0.479,0.191-0.976,0.256-1.393l0.048-0.336c-0.929,1.009-2.049,1.505-3.377,1.505
			c-2.434,0-3.906-1.681-3.906-3.874c0-2.721,2.401-4.85,4.786-4.85c1.409,0,2.449,0.624,3.249,1.841L694.44,978.017z
			 M687.285,982.69c0,1.712,1.168,2.816,2.929,2.816c2.146,0,3.778-1.584,3.778-3.761c0-1.841-1.329-2.945-2.802-2.945
			C689.029,978.801,687.285,980.434,687.285,982.69z"/>
		<path fill="#999A9C" d="M704.743,984.995c-0.832,1.04-2.192,1.744-3.777,1.744c-2.562,0-4.002-1.84-4.002-4.033
			c0-2.593,2.129-4.93,4.946-4.93c2.272,0,3.777,1.744,3.777,3.938c0,0.224-0.032,0.544-0.063,0.769h-7.571v0.224
			c0,1.761,1.152,3.025,2.945,3.025c1.185,0,2.257-0.496,2.929-1.393L704.743,984.995z M704.631,981.521
			c-0.063-1.633-1.232-2.673-2.785-2.673c-1.632,0-3.057,0.944-3.617,2.673H704.631z"/>
		<path fill="#999A9C" d="M707.283,984.562c0.641,0.769,1.345,1.152,2.049,1.152c0.769,0,1.569-0.624,1.569-1.488
			c0-0.464-0.24-0.929-0.673-1.232c-1.729-1.232-2.641-1.729-2.641-2.929c0-1.281,1.12-2.273,2.529-2.273
			c1.056,0,1.648,0.496,2.208,1.169l-0.592,0.896c-0.464-0.657-1.009-1.057-1.696-1.057c-0.801,0-1.361,0.656-1.361,1.216
			c0,0.385,0.272,0.801,0.736,1.104c1.537,1.009,2.577,1.633,2.577,3.138c0,1.473-1.168,2.465-2.705,2.465
			c-1.024,0-1.952-0.496-2.657-1.393L707.283,984.562z"/>
		<path fill="#999A9C" d="M715.94,974.831h1.072l-0.416,3.186h1.681l-0.112,0.96h-1.696l-1.024,7.539h-1.104l1.04-7.539h-1.472
			l0.128-0.96h1.456L715.94,974.831z"/>
		<path fill="#999A9C" d="M726.774,984.995c-0.832,1.04-2.192,1.744-3.777,1.744c-2.562,0-4.002-1.84-4.002-4.033
			c0-2.593,2.129-4.93,4.946-4.93c2.272,0,3.777,1.744,3.777,3.938c0,0.224-0.032,0.544-0.063,0.769h-7.571v0.224
			c0,1.761,1.152,3.025,2.945,3.025c1.185,0,2.257-0.496,2.929-1.393L726.774,984.995z M726.662,981.521
			c-0.063-1.633-1.232-2.673-2.785-2.673c-1.632,0-3.057,0.944-3.617,2.673H726.662z"/>
		<path fill="#999A9C" d="M730.691,974.734h1.072l-1.633,11.781h-1.088L730.691,974.734z"/>
		<path fill="#999A9C" d="M733.892,974.734h1.072l-1.633,11.781h-1.088L733.892,974.734z"/>
		<path fill="#999A9C" d="M738.164,974.831h1.072l-0.416,3.186h1.681l-0.112,0.96h-1.696l-1.024,7.539h-1.104l1.04-7.539h-1.472
			l0.128-0.96h1.456L738.164,974.831z"/>
		<path fill="#999A9C" d="M743.14,985.779c0,0.528-0.4,0.96-0.944,0.96s-0.96-0.447-0.96-0.96c0-0.528,0.432-0.944,0.96-0.944
			S743.14,985.251,743.14,985.779z"/>
	</g>
</g>
</svg>
